<svg xmlns="http://www.w3.org/2000/svg" xmlns:xlink="http://www.w3.org/1999/xlink" width="500" zoomAndPan="magnify" viewBox="0 0 375 374.999991" height="500" preserveAspectRatio="xMidYMid meet" version="1.0"><defs><clipPath id="ac72b8376e"><path d="M 29 57 L 365.210938 57 L 365.210938 317 L 29 317 Z M 29 57 " clip-rule="nonzero"/></clipPath><clipPath id="8bc0745d30"><path d="M 146.945312 119 L 251 119 L 251 284.898438 L 146.945312 284.898438 Z M 146.945312 119 " clip-rule="nonzero"/></clipPath></defs><g clip-path="url(#ac72b8376e)"><path fill="#f4bc33" d="M 153.714844 116.550781 C 154.238281 116.328125 154.390625 112.503906 154.539062 111.902344 C 154.613281 111.304688 154.914062 107.480469 155.4375 107.253906 C 163.605469 103.207031 171.921875 99.605469 180.464844 96.457031 C 213.355469 84.386719 250.21875 79.0625 284.382812 88.808594 C 312.480469 96.832031 338.480469 114.902344 353.164062 140.46875 C 360.957031 153.964844 365.003906 169.335938 365.078125 184.855469 C 365.152344 192.355469 364.105469 199.703125 362.832031 206.976562 C 361.480469 214.546875 359.910156 221.972656 357.359375 229.246094 C 346.496094 260.210938 322.519531 284.054688 293.449219 298.449219 C 261.15625 314.417969 224.59375 318.46875 189.003906 315.621094 C 170.050781 314.046875 151.167969 310.746094 132.734375 306.171875 C 118.5 302.722656 104.488281 298.222656 91.152344 292.152344 C 65.304688 280.378906 41.253906 261.335938 32.785156 233.144531 C 27.765625 216.496094 29.414062 199.851562 32.710938 183.132812 C 35.933594 166.863281 42.902344 151.792969 52.640625 138.445312 C 72.570312 111.304688 102.242188 91.433594 132.734375 77.9375 C 164.953125 63.691406 200.242188 56.71875 235.457031 57.46875 C 235.007812 57.46875 234.335938 66.839844 233.734375 66.839844 C 225.417969 66.617188 217.027344 66.839844 208.710938 67.515625 C 175.445312 70.214844 142.777344 79.960938 113.480469 95.859375 C 85.382812 111.152344 58.484375 132.296875 42.675781 160.640625 C 38.707031 167.835938 35.484375 175.410156 33.234375 183.28125 C 32.785156 184.933594 32.410156 186.65625 31.960938 188.382812 C 30.988281 192.054688 32.410156 184.78125 32.113281 187.332031 C 31.886719 189.582031 31.511719 191.828125 31.363281 194.078125 C 31.0625 197.976562 31.0625 201.953125 31.363281 205.851562 C 32.335938 220.921875 37.582031 235.316406 46.574219 247.464844 C 63.054688 269.808594 89.429688 282.855469 115.203125 291.25 C 130.414062 296.199219 146.148438 299.648438 161.882812 302.421875 C 180.613281 305.648438 199.644531 307.523438 218.675781 306.921875 C 251.117188 306.023438 283.710938 297.925781 311.058594 279.929688 C 324.09375 271.308594 335.707031 260.511719 344.773438 247.765625 C 349.269531 241.316406 353.164062 234.492188 356.238281 227.292969 C 357.808594 223.621094 359.234375 219.871094 360.433594 216.046875 C 361.03125 214.171875 361.558594 212.300781 362.007812 210.425781 C 362.230469 209.449219 362.457031 208.476562 362.679688 207.5 C 363.503906 204.050781 362.230469 211.25 362.605469 207.726562 C 364.179688 192.355469 363.28125 177.359375 357.734375 162.738281 C 352.789062 149.691406 344.773438 137.921875 334.882812 128.171875 C 313.679688 107.105469 284.832031 95.332031 255.164062 93.308594 C 220.023438 90.984375 185.035156 101.105469 153.714844 116.550781 Z M 153.714844 116.550781 " fill-opacity="1" fill-rule="nonzero"/></g><g clip-path="url(#8bc0745d30)"><path fill="#f4bc33" d="M 152.519531 284.898438 C 152.109375 284.898438 151.59375 284.796875 151.183594 284.695312 C 150.15625 284.179688 149.539062 283.253906 149.539062 282.226562 L 146.96875 248.917969 C 146.96875 248.40625 147.175781 247.789062 147.277344 247.273438 L 213.667969 121.335938 C 214.488281 119.796875 216.339844 119.179688 217.777344 120 C 219.320312 120.925781 219.9375 122.777344 219.113281 124.214844 L 215.929688 130.179688 L 241.929688 143.851562 L 245.011719 137.890625 L 250.457031 140.765625 L 245.9375 149.402344 L 184.070312 266.5 C 183.863281 267.113281 183.351562 267.527344 182.9375 267.835938 L 154.164062 284.488281 C 153.546875 284.796875 153.035156 284.898438 152.519531 284.898438 Z M 153.136719 249.226562 L 155.292969 276.777344 L 179.136719 263.105469 L 239.050781 149.402344 L 213.050781 135.730469 Z M 153.136719 249.226562 " fill-opacity="1" fill-rule="evenodd"/></g><path fill="#f4bc33" d="M 243.160156 151.152344 C 242.75 151.152344 242.238281 151.046875 241.722656 150.84375 L 210.378906 134.289062 C 208.835938 133.46875 208.21875 131.617188 209.042969 130.179688 L 215.3125 118.355469 C 219.628906 110.335938 229.492188 107.148438 237.507812 111.46875 L 245.320312 115.582031 C 253.335938 119.898438 256.417969 129.765625 252.207031 137.785156 L 245.9375 149.402344 C 245.320312 150.636719 244.292969 151.152344 243.160156 151.152344 Z M 215.929688 130.179688 L 241.929688 143.851562 L 246.757812 134.703125 C 249.328125 129.765625 247.476562 123.496094 242.441406 120.925781 L 234.632812 116.710938 C 229.597656 114.140625 223.328125 115.992188 220.757812 121.027344 Z M 215.929688 130.179688 " fill-opacity="1" fill-rule="evenodd"/><path fill="#f4bc33" d="M 169.375 252.824219 C 168.960938 252.824219 168.449219 252.621094 167.933594 252.515625 C 166.394531 251.695312 165.878906 249.84375 166.703125 248.40625 L 224.765625 138.300781 C 225.589844 136.757812 227.4375 136.140625 228.875 137.066406 C 230.519531 137.890625 231.035156 139.738281 230.210938 141.179688 L 172.148438 251.28125 C 171.53125 252.207031 170.503906 252.824219 169.375 252.824219 Z M 169.375 252.824219 " fill-opacity="1" fill-rule="evenodd"/><path fill="#f4bc33" d="M 185.097656 261.253906 C 184.6875 261.253906 184.070312 261.050781 183.660156 260.945312 L 152.3125 244.394531 C 150.667969 243.574219 150.15625 241.722656 150.976562 240.28125 C 151.800781 238.636719 153.753906 238.125 155.089844 238.945312 L 186.535156 255.496094 C 188.078125 256.421875 188.695312 258.273438 187.769531 259.609375 C 187.253906 260.535156 186.226562 261.253906 185.097656 261.253906 Z M 185.097656 261.253906 " fill-opacity="1" fill-rule="evenodd"/></svg>