<svg xmlns="http://www.w3.org/2000/svg" xmlns:xlink="http://www.w3.org/1999/xlink" width="500" zoomAndPan="magnify" viewBox="0 0 375 374.999991" height="500" preserveAspectRatio="xMidYMid meet" version="1.0"><defs><g/></defs><g fill="#dd7210" fill-opacity="1"><g transform="translate(34.678915, 203.937907)"><g><path d="M 42.925781 -54.980469 C 42.820312 -56.457031 41.234375 -55.296875 40.386719 -55.296875 C 36.160156 -55.085938 31.929688 -55.085938 27.804688 -54.871094 C 27.804688 -54.980469 28.019531 -55.402344 28.335938 -56.035156 C 27.914062 -55.296875 27.59375 -54.871094 27.277344 -54.871094 C 30.449219 -61.320312 33.832031 -67.773438 37.851562 -73.691406 C 37.746094 -73.480469 36.160156 -70.835938 36.265625 -70.835938 C 36.582031 -70.730469 40.492188 -76.125 40.597656 -76.863281 C 40.597656 -77.289062 39.648438 -76.230469 39.648438 -76.335938 C 40.28125 -76.96875 41.339844 -77.5 41.65625 -78.34375 C 42.398438 -80.460938 40.175781 -81.410156 38.589844 -81.726562 C 35.3125 -82.363281 31.613281 -81.9375 29.5 -79.191406 C 27.488281 -76.757812 26.007812 -73.902344 24.742188 -71.050781 C 24.105469 -69.78125 23.261719 -69.464844 22.414062 -68.300781 C 21.144531 -66.503906 20.300781 -64.386719 19.347656 -62.378906 C 18.503906 -60.582031 17.65625 -58.679688 16.917969 -56.777344 C 16.492188 -55.824219 16.492188 -55.085938 15.542969 -54.765625 C 14.589844 -54.34375 12.792969 -54.660156 11.734375 -54.554688 C 7.613281 -54.027344 3.59375 -54.238281 -0.527344 -53.816406 C -2.644531 -53.710938 -4.757812 -53.710938 -6.765625 -52.96875 C -7.191406 -52.863281 -9.515625 -52.335938 -9.726562 -52.019531 C -10.363281 -50.855469 -7.824219 -50.75 -7.296875 -50.644531 C -3.277344 -50.113281 1.796875 -49.691406 5.816406 -50.433594 C 8.5625 -50.960938 11.417969 -50.75 14.378906 -50.960938 C 12.898438 -47.789062 11.734375 -44.40625 10.574219 -41.023438 L 9.304688 -37.320312 C 8.882812 -36.160156 7.507812 -33.9375 7.507812 -32.671875 C 7.507812 -32.457031 7.824219 -32.988281 8.035156 -33.515625 C 7.507812 -31.929688 6.871094 -30.34375 6.449219 -28.757812 C 6.449219 -28.863281 6.765625 -30.132812 6.660156 -30.132812 C 6.132812 -30.132812 4.019531 -23.683594 3.804688 -23.15625 C 2.75 -19.984375 1.585938 -16.8125 1.058594 -13.425781 C 0.421875 -10.042969 -0.421875 -6.765625 -1.164062 -3.488281 C -1.585938 -1.796875 -2.007812 -0.210938 -2.21875 1.480469 C -2.433594 2.324219 -2.644531 3.277344 -2.644531 4.125 C -2.644531 4.335938 -2.644531 5.710938 -2.433594 5.285156 L -2.644531 7.402344 L -2.644531 5.816406 C -3.277344 6.554688 -2.644531 9.9375 -2.539062 10.574219 C -2.113281 12.6875 -1.058594 14.589844 0.847656 15.859375 C 2.539062 17.128906 5.179688 18.289062 7.191406 17.339844 C 9.832031 16.070312 12.054688 13.109375 13.746094 10.996094 C 17.445312 6.660156 20.828125 2.113281 24.210938 -2.433594 C 27.277344 -6.660156 30.449219 -10.785156 33.09375 -15.226562 C 34.574219 -17.761719 37.425781 -20.089844 38.378906 -22.941406 C 38.90625 -24.316406 38.589844 -26.007812 36.898438 -25.691406 C 35.523438 -25.375 33.621094 -21.675781 32.777344 -20.617188 C 28.96875 -15.859375 25.375 -10.996094 21.570312 -6.238281 L 15.4375 1.269531 C 14.484375 2.324219 13.53125 3.488281 12.476562 4.546875 C 12.054688 5.074219 9.410156 7.191406 9.515625 7.824219 C 9.515625 8.035156 10.679688 7.082031 11.101562 6.765625 C 10.574219 7.402344 9.9375 7.929688 9.410156 8.457031 C 9.515625 8.351562 7.296875 9.621094 6.976562 9.410156 C 4.96875 8.5625 6.765625 2.433594 7.082031 0.953125 C 8.988281 -7.613281 11.839844 -16.28125 14.695312 -24.527344 C 16.386719 -29.074219 18.078125 -33.410156 19.984375 -37.851562 C 20.933594 -40.070312 21.886719 -42.398438 22.941406 -44.617188 L 24.421875 -48.636719 L 23.261719 -46.308594 C 24 -48.210938 25.058594 -51.066406 25.691406 -51.171875 L 25.375 -50.539062 C 25.585938 -50.855469 25.796875 -51.066406 26.007812 -51.171875 C 27.171875 -51.914062 30.132812 -51.171875 31.507812 -51.171875 C 32.457031 -51.171875 33.621094 -51.066406 34.574219 -51.382812 C 35.207031 -51.59375 34.996094 -51.914062 35.734375 -52.125 C 37.003906 -52.335938 38.589844 -51.488281 39.964844 -51.914062 C 41.234375 -52.230469 43.03125 -53.394531 42.925781 -54.871094 Z M 22.835938 -48.847656 C 18.078125 -38.800781 14.484375 -28.019531 10.679688 -17.550781 C 8.882812 -12.792969 7.191406 -7.824219 6.027344 -2.855469 L 5.496094 -0.847656 C 6.238281 -4.652344 7.082031 -8.351562 8.140625 -12.054688 C 10.46875 -20.195312 13.425781 -28.230469 16.917969 -35.949219 C 22.835938 -49.164062 28.125 -63.332031 36.582031 -75.277344 C 30.871094 -67.136719 27.066406 -57.832031 22.835938 -48.847656 Z M 29.816406 -59.3125 L 32.351562 -64.175781 C 31.824219 -64.070312 30.871094 -61.746094 29.816406 -59.3125 Z M 18.925781 -36.265625 C 18.183594 -34.257812 17.339844 -32.351562 16.492188 -30.449219 C 17.339844 -32.457031 18.078125 -34.574219 19.03125 -36.6875 C 18.925781 -36.476562 18.925781 -36.371094 18.925781 -36.265625 Z M 28.441406 -56.246094 L 29.5 -58.574219 C 29.179688 -57.726562 28.757812 -56.882812 28.441406 -56.246094 Z M 5.390625 10.363281 C 5.285156 10.363281 5.179688 10.253906 5.074219 10.148438 Z M 5.390625 10.363281 "/></g></g></g><g fill="#dd7210" fill-opacity="1"><g transform="translate(67.13415, 203.937907)"><g><path d="M 43.347656 -25.691406 C 42.714844 -28.441406 40.175781 -24.742188 39.648438 -24.105469 L 33.832031 -16.28125 L 28.125 -8.777344 L 25.058594 -4.863281 C 24.742188 -4.441406 22.414062 -1.480469 22.625 -1.480469 C 22.835938 -1.691406 23.15625 -1.691406 23.472656 -2.007812 C 21.886719 -0.316406 16.070312 4.96875 15.011719 3.699219 C 14.167969 2.644531 16.492188 -1.796875 16.8125 -2.855469 C 17.972656 -5.921875 19.03125 -9.09375 20.300781 -12.054688 C 21.675781 -15.117188 23.261719 -18.183594 24.527344 -21.25 C 25.796875 -24.527344 23.894531 -25.691406 20.828125 -26.433594 C 19.453125 -26.75 17.761719 -26.75 16.175781 -26.960938 C 16.175781 -26.855469 16.28125 -26.855469 16.28125 -26.855469 C 17.65625 -26.644531 19.664062 -26.539062 21.355469 -26.007812 C 18.820312 -26.75 15.648438 -26.433594 13.640625 -26.960938 C 12.265625 -27.277344 11.417969 -27.277344 11.628906 -28.863281 C 11.839844 -30.976562 14.0625 -33.199219 14.800781 -35.207031 C 14.800781 -35.101562 14.0625 -33.199219 14.167969 -33.199219 C 14.695312 -32.988281 15.542969 -35.949219 15.542969 -36.371094 C 15.4375 -36.898438 14.167969 -38.484375 14.0625 -37.851562 L 14.273438 -37.535156 C 9.199219 -41.023438 3.171875 -33.832031 4.230469 -28.652344 C 4.441406 -27.914062 4.863281 -27.488281 5.179688 -26.644531 C 5.390625 -26.007812 5.179688 -25.269531 5.816406 -24.421875 C 8.035156 -21.675781 12.054688 -21.570312 15.226562 -22.203125 C 14.695312 -21.460938 9.09375 -9.621094 9.410156 -9.515625 L 8.667969 -6.871094 C 8.5625 -6.976562 8.988281 -7.824219 8.777344 -7.824219 C 8.035156 -7.929688 6.554688 -1.796875 6.449219 -1.269531 C 6.027344 1.269531 6.132812 3.488281 7.191406 5.816406 C 7.824219 7.296875 8.5625 8.5625 9.9375 9.410156 C 11.207031 10.253906 12.792969 10.679688 14.273438 10.363281 C 14.800781 10.148438 16.8125 8.777344 16.28125 8.882812 L 17.023438 8.5625 C 16.917969 8.667969 16.8125 8.777344 16.8125 8.882812 C 17.128906 8.988281 21.992188 5.074219 22.625 4.652344 C 26.007812 1.796875 28.757812 -1.691406 31.296875 -5.179688 C 33.832031 -8.777344 36.476562 -12.371094 38.90625 -15.964844 C 40.070312 -17.65625 41.128906 -19.347656 41.972656 -21.144531 C 42.609375 -22.414062 43.664062 -24.210938 43.347656 -25.691406 Z M 11.734375 -13.003906 C 12.476562 -14.90625 13.320312 -16.703125 14.273438 -18.503906 C 14.484375 -18.820312 15.964844 -22.625 16.703125 -22.835938 C 16.175781 -22.519531 13.957031 -17.339844 13.425781 -16.386719 L 11.417969 -11.734375 C 10.363281 -9.199219 9.199219 -6.554688 8.457031 -3.804688 C 9.199219 -6.976562 10.46875 -10.042969 11.734375 -13.003906 Z M 9.199219 7.296875 C 9.832031 8.140625 10.679688 8.988281 11.839844 9.410156 C 10.890625 9.09375 10.042969 8.5625 9.410156 7.929688 C 9.515625 7.929688 9.515625 8.035156 9.515625 8.140625 C 8.882812 7.296875 8.035156 5.496094 7.929688 5.179688 C 7.613281 3.910156 7.507812 2.433594 7.613281 1.164062 C 7.613281 0.105469 7.71875 -0.738281 7.929688 -1.691406 L 7.929688 -1.585938 C 7.71875 -0.210938 7.613281 1.164062 7.71875 2.644531 L 7.71875 3.171875 C 7.613281 3.066406 7.613281 2.960938 7.613281 2.960938 C 7.613281 2.960938 7.613281 3.066406 7.71875 3.277344 L 7.71875 3.382812 L 8.140625 5.605469 L 7.824219 4.230469 C 8.035156 4.863281 8.5625 6.027344 9.09375 7.191406 L 8.988281 7.082031 C 8.988281 7.191406 9.09375 7.296875 9.199219 7.402344 Z M 12.160156 -27.59375 C 12.6875 -27.171875 13.640625 -27.066406 14.589844 -26.960938 C 13.746094 -27.066406 13.003906 -27.277344 12.476562 -27.699219 C 12.476562 -27.699219 11.839844 -28.230469 11.734375 -28.441406 C 11.734375 -28.230469 11.949219 -27.699219 12.160156 -27.59375 Z M 23.261719 -19.347656 L 21.039062 -14.695312 L 23.261719 -19.453125 Z M 8.035156 -2.007812 C 8.035156 -1.902344 7.929688 -1.796875 7.929688 -1.691406 L 7.929688 -1.796875 C 7.929688 -1.902344 8.035156 -1.902344 8.035156 -2.007812 Z M 23.367188 -19.664062 L 23.367188 -19.558594 L 23.261719 -19.558594 Z M 23.367188 -19.664062 L 23.367188 -19.558594 L 23.261719 -19.558594 Z M 8.140625 -3.382812 C 8.140625 -3.488281 8.246094 -3.59375 8.246094 -3.804688 C 8.246094 -3.59375 8.140625 -3.488281 8.140625 -3.382812 Z M 8.5625 6.34375 C 8.5625 6.34375 8.667969 6.449219 8.667969 6.554688 C 8.667969 6.449219 8.5625 6.449219 8.5625 6.34375 Z M 11.839844 -28.652344 C 11.734375 -28.652344 11.734375 -28.546875 11.734375 -28.546875 Z M 11.839844 -28.652344 "/></g></g></g><g fill="#dd7210" fill-opacity="1"><g transform="translate(102.760905, 203.937907)"><g><path d="M 27.699219 -26.007812 C 27.488281 -27.382812 26.007812 -26.960938 25.269531 -26.433594 C 24.316406 -25.796875 19.03125 -18.820312 19.453125 -18.289062 C 19.769531 -18.289062 19.984375 -18.289062 20.195312 -18.503906 C 18.714844 -16.703125 15.964844 -14.695312 13.957031 -13.109375 C 12.792969 -12.160156 9.9375 -9.515625 8.246094 -10.363281 C 4.652344 -12.160156 11.949219 -24.847656 11.628906 -24.953125 C 11.3125 -25.058594 8.667969 -19.136719 8.140625 -17.761719 C 9.410156 -21.460938 11.101562 -25.164062 13.109375 -28.441406 C 13.003906 -28.125 12.6875 -27.59375 12.898438 -27.59375 C 13.109375 -27.488281 14.695312 -29.710938 14.378906 -29.921875 C 14.273438 -29.921875 14.0625 -29.921875 13.957031 -29.816406 C 14.273438 -30.132812 14.800781 -30.238281 14.800781 -30.871094 C 14.800781 -31.929688 12.371094 -32.988281 11.523438 -33.304688 C 9.515625 -34.148438 7.507812 -34.363281 5.921875 -33.304688 C 3.804688 -32.035156 3.382812 -29.5 2.539062 -27.277344 C 2.324219 -26.644531 0.316406 -19.136719 0.738281 -19.03125 C 0.953125 -19.136719 0.953125 -19.242188 1.058594 -19.453125 L 0.738281 -17.550781 C 0.632812 -17.550781 0.847656 -18.078125 0.632812 -18.078125 C -0.210938 -18.078125 0 -14.273438 0.105469 -13.746094 C 0.527344 -11.839844 2.007812 -10.46875 3.171875 -8.882812 C 3.804688 -7.929688 4.441406 -6.976562 5.390625 -6.34375 C 6.660156 -5.390625 5.816406 -6.34375 6.660156 -5.921875 L 6.449219 -5.921875 C 6.34375 -5.285156 10.363281 -4.230469 11.207031 -4.335938 C 14.90625 -5.179688 17.550781 -9.726562 19.664062 -12.582031 C 21.675781 -15.117188 23.367188 -17.65625 25.164062 -20.300781 C 26.21875 -21.675781 28.125 -24 27.699219 -26.007812 Z M 9.199219 -39.332031 C 9.410156 -39.011719 9.09375 -38.589844 9.832031 -38.167969 C 10.574219 -37.851562 10.996094 -38.273438 11.628906 -38.484375 C 12.898438 -39.011719 13.851562 -40.386719 14.800781 -41.234375 C 15.117188 -41.445312 14.484375 -41.339844 14.484375 -41.339844 C 15.859375 -42.609375 14.695312 -41.128906 15.964844 -41.867188 C 17.234375 -42.714844 17.445312 -44.089844 18.503906 -45.25 C 17.234375 -44.722656 16.28125 -43.984375 15.4375 -42.925781 C 14.378906 -41.550781 13.640625 -40.917969 12.476562 -40.175781 C 13.746094 -41.128906 14.378906 -42.078125 15.4375 -43.769531 C 15.753906 -44.089844 16.070312 -44.300781 16.492188 -44.511719 C 16.175781 -44.828125 16.175781 -45.144531 16.597656 -45.464844 C 16.917969 -45.992188 17.550781 -46.203125 17.867188 -46.730469 C 18.398438 -47.472656 18.289062 -48.421875 18.925781 -49.164062 C 19.453125 -49.585938 20.195312 -49.902344 20.617188 -50.328125 C 21.570312 -51.171875 22.625 -52.757812 22.203125 -54.132812 C 21.78125 -55.402344 20.722656 -56.988281 19.558594 -57.726562 C 18.183594 -58.46875 16.28125 -58.785156 14.800781 -58.152344 C 14.484375 -58.042969 13.214844 -57.726562 13.640625 -57.304688 C 13.746094 -57.09375 13.851562 -57.09375 14.0625 -57.09375 C 13.109375 -56.351562 11.523438 -55.085938 13.746094 -54.238281 C 13.53125 -54.027344 13.746094 -53.074219 13.746094 -52.96875 C 13.640625 -52.230469 12.160156 -48.316406 11.207031 -46.414062 L 12.476562 -48.316406 C 11.734375 -46.730469 10.890625 -45.25 9.9375 -43.984375 C 10.574219 -45.355469 9.304688 -43.769531 9.304688 -43.453125 C 8.140625 -43.984375 8.457031 -40.707031 8.5625 -40.386719 C 8.5625 -40.28125 9.199219 -39.332031 9.199219 -39.332031 Z M 7.191406 -14.167969 L 7.191406 -14.0625 L 6.976562 -13.425781 L 7.191406 -14.273438 C 7.296875 -14.378906 7.296875 -14.378906 7.191406 -14.167969 Z M 10.679688 -45.570312 C 10.679688 -45.570312 10.890625 -45.78125 11.101562 -46.203125 Z M 9.621094 -43.558594 C 9.621094 -43.453125 9.621094 -43.453125 9.515625 -43.347656 C 9.515625 -43.347656 9.515625 -43.453125 9.410156 -43.453125 C 9.515625 -43.453125 9.515625 -43.453125 9.621094 -43.558594 Z M 9.621094 -43.558594 "/></g></g></g><g fill="#dd7210" fill-opacity="1"><g transform="translate(122.741487, 203.937907)"><g><path d="M 59.84375 -26.21875 C 59.207031 -26.113281 53.710938 -24.421875 54.027344 -23.578125 C 54.027344 -23.472656 54.238281 -23.367188 54.34375 -23.367188 C 52.546875 -22.625 50.222656 -22.519531 48.421875 -21.355469 C 46.414062 -19.984375 44.511719 -18.609375 42.398438 -17.445312 C 44.300781 -20.722656 46.097656 -24.210938 47.261719 -27.699219 C 47.683594 -28.96875 50.113281 -36.792969 48.527344 -37.640625 C 48.316406 -37.746094 48.210938 -36.792969 48.105469 -36.265625 C 48.210938 -40.492188 46.835938 -46.941406 41.128906 -47.367188 C 37.640625 -47.578125 34.363281 -43.242188 32.457031 -40.917969 C 28.125 -35.417969 24.316406 -29.5 20.511719 -23.789062 C 19.453125 -22.203125 8.882812 -5.074219 8.882812 -5.074219 C 8.882812 -5.074219 9.621094 -6.132812 10.574219 -7.507812 C 9.621094 -5.921875 8.667969 -4.230469 7.824219 -2.539062 C 8.246094 -4.125 12.265625 -16.703125 14.800781 -24.105469 C 15.011719 -24.421875 15.117188 -24.847656 15.226562 -25.164062 L 15.859375 -26.960938 L 15.859375 -26.855469 C 16.8125 -29.710938 17.761719 -32.5625 18.609375 -35.523438 C 18.609375 -35.207031 18.183594 -33.621094 18.289062 -33.621094 C 18.925781 -33.515625 19.769531 -37.957031 19.347656 -37.957031 L 19.03125 -37.425781 C 19.347656 -39.011719 19.875 -39.753906 18.925781 -41.550781 C 18.183594 -43.136719 16.917969 -44.617188 15.117188 -45.039062 C 11.628906 -45.992188 9.9375 -43.136719 10.148438 -40.386719 C 10.148438 -39.964844 10.679688 -39.753906 10.679688 -39.332031 C 10.679688 -38.800781 10.148438 -37.851562 10.042969 -37.425781 C 9.304688 -35.207031 8.777344 -33.09375 7.929688 -30.976562 C 7.507812 -29.816406 3.59375 -18.820312 3.59375 -18.820312 C 3.804688 -18.925781 3.910156 -19.136719 4.019531 -19.347656 C 3.699219 -18.398438 3.382812 -17.445312 2.960938 -16.492188 C 2.855469 -16.597656 3.277344 -17.339844 3.066406 -17.339844 C 2.007812 -17.550781 -0.632812 -8.667969 -0.847656 -7.824219 C -1.269531 -5.816406 -1.796875 -3.910156 -2.539062 -1.902344 C -2.855469 -0.847656 -3.277344 0.210938 -3.59375 1.375 C -3.59375 1.480469 -4.125 4.019531 -3.59375 3.066406 C -3.699219 3.382812 -3.804688 3.59375 -3.804688 3.804688 C -3.804688 3.699219 -3.910156 3.59375 -3.910156 3.488281 C -4.230469 3.59375 -4.441406 5.816406 -4.441406 5.921875 C -4.863281 7.082031 -5.390625 7.929688 -5.921875 8.988281 C -7.296875 12.371094 -8.035156 16.070312 -8.5625 19.664062 C -9.410156 25.164062 -11.949219 33.410156 -9.199219 38.484375 C -8.246094 40.28125 -5.285156 43.984375 -2.960938 41.761719 C -1.902344 40.707031 -1.902344 38.273438 -1.796875 37.003906 C -1.164062 33.515625 -0.632812 29.921875 0.105469 26.433594 L 1.058594 21.570312 C 1.164062 21.355469 2.007812 17.445312 1.691406 17.550781 C 1.480469 17.761719 1.269531 18.078125 1.164062 18.398438 C 1.691406 16.703125 2.433594 15.117188 3.066406 13.320312 C 3.910156 10.785156 4.546875 8.351562 5.816406 6.027344 C 7.296875 3.699219 8.5625 1.164062 9.9375 -1.164062 C 10.996094 -3.066406 11.949219 -5.496094 13.109375 -7.082031 C 13.425781 -7.507812 14.0625 -7.71875 14.589844 -8.140625 C 15.648438 -9.304688 16.386719 -10.890625 17.234375 -12.160156 C 18.820312 -14.695312 20.195312 -17.234375 21.886719 -19.558594 C 22.625 -20.617188 31.085938 -32.457031 31.929688 -33.199219 C 31.71875 -33.09375 31.507812 -32.988281 31.296875 -32.777344 C 32.140625 -33.832031 33.09375 -34.785156 33.9375 -35.628906 C 34.042969 -35.523438 33.304688 -34.890625 33.410156 -34.785156 C 33.621094 -34.679688 38.484375 -38.484375 39.332031 -38.589844 C 41.65625 -39.011719 40.8125 -34.574219 40.492188 -33.410156 C 39.964844 -30.976562 38.589844 -28.652344 37.425781 -26.539062 C 36.792969 -25.375 36.160156 -24.316406 35.628906 -23.15625 C 35.523438 -23.046875 34.679688 -21.039062 34.996094 -21.25 L 34.363281 -20.300781 C 34.574219 -20.617188 34.679688 -21.039062 34.679688 -21.039062 C 34.257812 -21.039062 33.726562 -19.242188 33.621094 -18.925781 C 32.988281 -17.867188 32.140625 -17.023438 31.296875 -16.175781 C 29.074219 -13.640625 27.066406 -10.996094 24.847656 -8.5625 C 23.15625 -6.765625 20.933594 -3.59375 18.398438 -2.960938 C 16.597656 -2.539062 15.226562 -3.488281 16.175781 -0.632812 C 16.8125 1.375 19.136719 6.027344 21.675781 6.027344 C 24 6.027344 26.855469 2.539062 28.230469 1.058594 C 29.816406 -0.738281 31.613281 -2.433594 33.304688 -4.335938 C 33.726562 -4.96875 38.589844 -10.785156 39.332031 -11.101562 L 39.226562 -11.101562 C 40.28125 -11.628906 41.339844 -11.207031 42.820312 -12.265625 C 43.664062 -12.898438 44.089844 -13.53125 45.039062 -14.167969 C 45.78125 -14.589844 46.097656 -15.117188 46.414062 -15.4375 C 46.414062 -15.4375 46.414062 -15.332031 46.519531 -15.332031 C 47.578125 -16.386719 49.058594 -16.070312 50.433594 -17.023438 C 52.125 -18.183594 54.238281 -19.664062 55.71875 -21.039062 C 57.621094 -22.730469 60.265625 -23.683594 61.109375 -26.539062 C 60.6875 -26.433594 60.160156 -26.433594 59.84375 -26.21875 Z M 5.710938 -15.4375 L 5.710938 -15.332031 C 5.605469 -13.957031 4.652344 -12.371094 4.125 -11.101562 C 3.382812 -9.09375 2.75 -7.082031 2.113281 -5.074219 C 0.738281 -0.847656 -0.847656 3.382812 -2.539062 7.402344 C -3.910156 10.785156 -5.179688 14.484375 -6.132812 18.183594 C -4.96875 13.003906 -3.066406 7.929688 -1.585938 3.066406 C -0.210938 -1.375 1.902344 -5.710938 3.59375 -10.042969 C 3.804688 -10.574219 5.816406 -14.800781 5.605469 -15.648438 C 5.710938 -15.542969 5.710938 -15.4375 5.710938 -15.4375 Z M 10.363281 -12.265625 C 10.042969 -10.996094 9.726562 -9.832031 9.304688 -8.777344 C 9.621094 -9.832031 9.9375 -11.101562 10.363281 -12.265625 Z M 24.847656 -29.605469 L 22.835938 -26.644531 C 23.472656 -27.59375 24.105469 -28.652344 24.847656 -29.605469 Z M 42.078125 -16.8125 C 42.183594 -17.128906 42.714844 -17.234375 43.03125 -17.445312 Z M 16.8125 -29.179688 C 16.703125 -29.074219 16.597656 -28.757812 16.492188 -28.335938 Z M 16.070312 -27.382812 L 16.492188 -28.335938 Z M 21.570312 -24.742188 L 21.570312 -24.847656 C 21.675781 -24.953125 21.675781 -24.953125 21.675781 -25.058594 C 21.78125 -25.164062 21.675781 -24.953125 21.570312 -24.742188 Z M 16.070312 -27.382812 C 16.070312 -27.171875 15.964844 -27.066406 15.859375 -26.960938 Z M -6.34375 19.136719 C -6.34375 19.03125 -6.34375 19.03125 -6.238281 18.925781 C -6.238281 19.03125 -6.238281 19.03125 -6.34375 19.136719 Z M 10.996094 -13.53125 C 10.996094 -13.425781 10.890625 -13.425781 10.890625 -13.425781 Z M 10.996094 -13.53125 "/></g></g></g><g fill="#dd7210" fill-opacity="1"><g transform="translate(176.023053, 203.937907)"><g/></g></g><g fill="#dd7210" fill-opacity="1"><g transform="translate(205.623923, 203.937907)"><g><path d="M 42.925781 -54.980469 C 42.820312 -56.457031 41.234375 -55.296875 40.386719 -55.296875 C 36.160156 -55.085938 31.929688 -55.085938 27.804688 -54.871094 C 27.804688 -54.980469 28.019531 -55.402344 28.335938 -56.035156 C 27.914062 -55.296875 27.59375 -54.871094 27.277344 -54.871094 C 30.449219 -61.320312 33.832031 -67.773438 37.851562 -73.691406 C 37.746094 -73.480469 36.160156 -70.835938 36.265625 -70.835938 C 36.582031 -70.730469 40.492188 -76.125 40.597656 -76.863281 C 40.597656 -77.289062 39.648438 -76.230469 39.648438 -76.335938 C 40.28125 -76.96875 41.339844 -77.5 41.65625 -78.34375 C 42.398438 -80.460938 40.175781 -81.410156 38.589844 -81.726562 C 35.3125 -82.363281 31.613281 -81.9375 29.5 -79.191406 C 27.488281 -76.757812 26.007812 -73.902344 24.742188 -71.050781 C 24.105469 -69.78125 23.261719 -69.464844 22.414062 -68.300781 C 21.144531 -66.503906 20.300781 -64.386719 19.347656 -62.378906 C 18.503906 -60.582031 17.65625 -58.679688 16.917969 -56.777344 C 16.492188 -55.824219 16.492188 -55.085938 15.542969 -54.765625 C 14.589844 -54.34375 12.792969 -54.660156 11.734375 -54.554688 C 7.613281 -54.027344 3.59375 -54.238281 -0.527344 -53.816406 C -2.644531 -53.710938 -4.757812 -53.710938 -6.765625 -52.96875 C -7.191406 -52.863281 -9.515625 -52.335938 -9.726562 -52.019531 C -10.363281 -50.855469 -7.824219 -50.75 -7.296875 -50.644531 C -3.277344 -50.113281 1.796875 -49.691406 5.816406 -50.433594 C 8.5625 -50.960938 11.417969 -50.75 14.378906 -50.960938 C 12.898438 -47.789062 11.734375 -44.40625 10.574219 -41.023438 L 9.304688 -37.320312 C 8.882812 -36.160156 7.507812 -33.9375 7.507812 -32.671875 C 7.507812 -32.457031 7.824219 -32.988281 8.035156 -33.515625 C 7.507812 -31.929688 6.871094 -30.34375 6.449219 -28.757812 C 6.449219 -28.863281 6.765625 -30.132812 6.660156 -30.132812 C 6.132812 -30.132812 4.019531 -23.683594 3.804688 -23.15625 C 2.75 -19.984375 1.585938 -16.8125 1.058594 -13.425781 C 0.421875 -10.042969 -0.421875 -6.765625 -1.164062 -3.488281 C -1.585938 -1.796875 -2.007812 -0.210938 -2.21875 1.480469 C -2.433594 2.324219 -2.644531 3.277344 -2.644531 4.125 C -2.644531 4.335938 -2.644531 5.710938 -2.433594 5.285156 L -2.644531 7.402344 L -2.644531 5.816406 C -3.277344 6.554688 -2.644531 9.9375 -2.539062 10.574219 C -2.113281 12.6875 -1.058594 14.589844 0.847656 15.859375 C 2.539062 17.128906 5.179688 18.289062 7.191406 17.339844 C 9.832031 16.070312 12.054688 13.109375 13.746094 10.996094 C 17.445312 6.660156 20.828125 2.113281 24.210938 -2.433594 C 27.277344 -6.660156 30.449219 -10.785156 33.09375 -15.226562 C 34.574219 -17.761719 37.425781 -20.089844 38.378906 -22.941406 C 38.90625 -24.316406 38.589844 -26.007812 36.898438 -25.691406 C 35.523438 -25.375 33.621094 -21.675781 32.777344 -20.617188 C 28.96875 -15.859375 25.375 -10.996094 21.570312 -6.238281 L 15.4375 1.269531 C 14.484375 2.324219 13.53125 3.488281 12.476562 4.546875 C 12.054688 5.074219 9.410156 7.191406 9.515625 7.824219 C 9.515625 8.035156 10.679688 7.082031 11.101562 6.765625 C 10.574219 7.402344 9.9375 7.929688 9.410156 8.457031 C 9.515625 8.351562 7.296875 9.621094 6.976562 9.410156 C 4.96875 8.5625 6.765625 2.433594 7.082031 0.953125 C 8.988281 -7.613281 11.839844 -16.28125 14.695312 -24.527344 C 16.386719 -29.074219 18.078125 -33.410156 19.984375 -37.851562 C 20.933594 -40.070312 21.886719 -42.398438 22.941406 -44.617188 L 24.421875 -48.636719 L 23.261719 -46.308594 C 24 -48.210938 25.058594 -51.066406 25.691406 -51.171875 L 25.375 -50.539062 C 25.585938 -50.855469 25.796875 -51.066406 26.007812 -51.171875 C 27.171875 -51.914062 30.132812 -51.171875 31.507812 -51.171875 C 32.457031 -51.171875 33.621094 -51.066406 34.574219 -51.382812 C 35.207031 -51.59375 34.996094 -51.914062 35.734375 -52.125 C 37.003906 -52.335938 38.589844 -51.488281 39.964844 -51.914062 C 41.234375 -52.230469 43.03125 -53.394531 42.925781 -54.871094 Z M 22.835938 -48.847656 C 18.078125 -38.800781 14.484375 -28.019531 10.679688 -17.550781 C 8.882812 -12.792969 7.191406 -7.824219 6.027344 -2.855469 L 5.496094 -0.847656 C 6.238281 -4.652344 7.082031 -8.351562 8.140625 -12.054688 C 10.46875 -20.195312 13.425781 -28.230469 16.917969 -35.949219 C 22.835938 -49.164062 28.125 -63.332031 36.582031 -75.277344 C 30.871094 -67.136719 27.066406 -57.832031 22.835938 -48.847656 Z M 29.816406 -59.3125 L 32.351562 -64.175781 C 31.824219 -64.070312 30.871094 -61.746094 29.816406 -59.3125 Z M 18.925781 -36.265625 C 18.183594 -34.257812 17.339844 -32.351562 16.492188 -30.449219 C 17.339844 -32.457031 18.078125 -34.574219 19.03125 -36.6875 C 18.925781 -36.476562 18.925781 -36.371094 18.925781 -36.265625 Z M 28.441406 -56.246094 L 29.5 -58.574219 C 29.179688 -57.726562 28.757812 -56.882812 28.441406 -56.246094 Z M 5.390625 10.363281 C 5.285156 10.363281 5.179688 10.253906 5.074219 10.148438 Z M 5.390625 10.363281 "/></g></g></g><g fill="#dd7210" fill-opacity="1"><g transform="translate(238.07917, 203.937907)"><g><path d="M 27.699219 -26.007812 C 27.488281 -27.382812 26.007812 -26.960938 25.269531 -26.433594 C 24.316406 -25.796875 19.03125 -18.820312 19.453125 -18.289062 C 19.769531 -18.289062 19.984375 -18.289062 20.195312 -18.503906 C 18.714844 -16.703125 15.964844 -14.695312 13.957031 -13.109375 C 12.792969 -12.160156 9.9375 -9.515625 8.246094 -10.363281 C 4.652344 -12.160156 11.949219 -24.847656 11.628906 -24.953125 C 11.3125 -25.058594 8.667969 -19.136719 8.140625 -17.761719 C 9.410156 -21.460938 11.101562 -25.164062 13.109375 -28.441406 C 13.003906 -28.125 12.6875 -27.59375 12.898438 -27.59375 C 13.109375 -27.488281 14.695312 -29.710938 14.378906 -29.921875 C 14.273438 -29.921875 14.0625 -29.921875 13.957031 -29.816406 C 14.273438 -30.132812 14.800781 -30.238281 14.800781 -30.871094 C 14.800781 -31.929688 12.371094 -32.988281 11.523438 -33.304688 C 9.515625 -34.148438 7.507812 -34.363281 5.921875 -33.304688 C 3.804688 -32.035156 3.382812 -29.5 2.539062 -27.277344 C 2.324219 -26.644531 0.316406 -19.136719 0.738281 -19.03125 C 0.953125 -19.136719 0.953125 -19.242188 1.058594 -19.453125 L 0.738281 -17.550781 C 0.632812 -17.550781 0.847656 -18.078125 0.632812 -18.078125 C -0.210938 -18.078125 0 -14.273438 0.105469 -13.746094 C 0.527344 -11.839844 2.007812 -10.46875 3.171875 -8.882812 C 3.804688 -7.929688 4.441406 -6.976562 5.390625 -6.34375 C 6.660156 -5.390625 5.816406 -6.34375 6.660156 -5.921875 L 6.449219 -5.921875 C 6.34375 -5.285156 10.363281 -4.230469 11.207031 -4.335938 C 14.90625 -5.179688 17.550781 -9.726562 19.664062 -12.582031 C 21.675781 -15.117188 23.367188 -17.65625 25.164062 -20.300781 C 26.21875 -21.675781 28.125 -24 27.699219 -26.007812 Z M 9.199219 -39.332031 C 9.410156 -39.011719 9.09375 -38.589844 9.832031 -38.167969 C 10.574219 -37.851562 10.996094 -38.273438 11.628906 -38.484375 C 12.898438 -39.011719 13.851562 -40.386719 14.800781 -41.234375 C 15.117188 -41.445312 14.484375 -41.339844 14.484375 -41.339844 C 15.859375 -42.609375 14.695312 -41.128906 15.964844 -41.867188 C 17.234375 -42.714844 17.445312 -44.089844 18.503906 -45.25 C 17.234375 -44.722656 16.28125 -43.984375 15.4375 -42.925781 C 14.378906 -41.550781 13.640625 -40.917969 12.476562 -40.175781 C 13.746094 -41.128906 14.378906 -42.078125 15.4375 -43.769531 C 15.753906 -44.089844 16.070312 -44.300781 16.492188 -44.511719 C 16.175781 -44.828125 16.175781 -45.144531 16.597656 -45.464844 C 16.917969 -45.992188 17.550781 -46.203125 17.867188 -46.730469 C 18.398438 -47.472656 18.289062 -48.421875 18.925781 -49.164062 C 19.453125 -49.585938 20.195312 -49.902344 20.617188 -50.328125 C 21.570312 -51.171875 22.625 -52.757812 22.203125 -54.132812 C 21.78125 -55.402344 20.722656 -56.988281 19.558594 -57.726562 C 18.183594 -58.46875 16.28125 -58.785156 14.800781 -58.152344 C 14.484375 -58.042969 13.214844 -57.726562 13.640625 -57.304688 C 13.746094 -57.09375 13.851562 -57.09375 14.0625 -57.09375 C 13.109375 -56.351562 11.523438 -55.085938 13.746094 -54.238281 C 13.53125 -54.027344 13.746094 -53.074219 13.746094 -52.96875 C 13.640625 -52.230469 12.160156 -48.316406 11.207031 -46.414062 L 12.476562 -48.316406 C 11.734375 -46.730469 10.890625 -45.25 9.9375 -43.984375 C 10.574219 -45.355469 9.304688 -43.769531 9.304688 -43.453125 C 8.140625 -43.984375 8.457031 -40.707031 8.5625 -40.386719 C 8.5625 -40.28125 9.199219 -39.332031 9.199219 -39.332031 Z M 7.191406 -14.167969 L 7.191406 -14.0625 L 6.976562 -13.425781 L 7.191406 -14.273438 C 7.296875 -14.378906 7.296875 -14.378906 7.191406 -14.167969 Z M 10.679688 -45.570312 C 10.679688 -45.570312 10.890625 -45.78125 11.101562 -46.203125 Z M 9.621094 -43.558594 C 9.621094 -43.453125 9.621094 -43.453125 9.515625 -43.347656 C 9.515625 -43.347656 9.515625 -43.453125 9.410156 -43.453125 C 9.515625 -43.453125 9.515625 -43.453125 9.621094 -43.558594 Z M 9.621094 -43.558594 "/></g></g></g><g fill="#dd7210" fill-opacity="1"><g transform="translate(258.059752, 203.937907)"><g><path d="M 38.273438 -19.558594 C 39.226562 -20.933594 43.03125 -24.953125 41.445312 -26.75 C 39.332031 -28.863281 33.832031 -20.089844 32.988281 -19.03125 C 31.296875 -16.8125 29.5 -14.695312 27.804688 -12.582031 C 26.855469 -11.417969 25.902344 -10.253906 24.847656 -9.199219 C 24.632812 -8.988281 22.625 -6.449219 22.835938 -6.449219 C 23.15625 -6.554688 23.472656 -6.765625 23.789062 -6.976562 C 21.992188 -5.074219 19.558594 -3.382812 17.339844 -1.691406 C 15.859375 -0.632812 13.003906 1.691406 11.207031 0.421875 C 10.46875 0 10.253906 -1.058594 10.042969 -1.796875 C 9.304688 -5.074219 9.832031 -8.988281 10.363281 -12.371094 C 11.523438 -19.453125 13.851562 -26.433594 16.703125 -33.09375 C 18.078125 -36.160156 19.453125 -39.226562 21.886719 -41.550781 C 22.097656 -41.761719 22.519531 -41.339844 22.625 -41.445312 C 22.835938 -41.550781 21.992188 -41.867188 21.886719 -41.761719 C 20.722656 -41.128906 19.984375 -39.859375 19.347656 -38.695312 C 17.445312 -35.628906 15.964844 -32.246094 14.695312 -28.863281 C 15.648438 -31.507812 16.703125 -34.148438 17.972656 -36.792969 C 18.714844 -38.167969 19.558594 -40.386719 20.933594 -41.445312 C 24.527344 -44.300781 23.15625 -34.890625 22.730469 -33.515625 C 22.730469 -33.621094 23.15625 -35.949219 23.046875 -35.949219 C 22.835938 -35.949219 21.355469 -30.554688 21.355469 -30.554688 L 21.886719 -30.976562 C 21.355469 -30.132812 20.300781 -29.5 21.675781 -28.546875 C 23.367188 -27.382812 26.644531 -29.390625 27.382812 -30.871094 C 28.125 -32.457031 28.335938 -34.574219 28.441406 -36.160156 C 28.652344 -38.90625 27.914062 -40.492188 26.960938 -42.609375 C 25.902344 -44.828125 24.953125 -46.203125 22.097656 -46.625 C 19.769531 -46.941406 17.65625 -45.992188 15.859375 -44.617188 C 13.214844 -42.714844 11.207031 -40.28125 9.515625 -37.535156 C 9.09375 -36.792969 5.285156 -29.074219 5.390625 -28.96875 L 5.816406 -29.5 C 5.285156 -28.335938 4.96875 -27.171875 4.546875 -26.113281 C 4.441406 -26.113281 4.757812 -27.066406 4.652344 -27.066406 C 4.019531 -27.171875 2.113281 -21.355469 2.007812 -20.828125 C 1.269531 -18.609375 0.738281 -16.386719 0.632812 -14.0625 C 0.527344 -11.523438 0.105469 -8.988281 0 -6.34375 C 0 -4.96875 0 -3.488281 0.210938 -2.113281 C 0.210938 -1.691406 1.058594 0.527344 1.058594 -0.105469 L 1.585938 1.691406 C 1.480469 1.585938 1.058594 0.527344 1.058594 0.527344 C 0.527344 1.164062 3.382812 5.285156 4.019531 5.921875 C 4.863281 6.871094 6.132812 7.296875 7.402344 7.507812 C 11.628906 8.035156 15.648438 5.605469 18.714844 3.066406 C 24 -1.375 29.179688 -6.871094 33.09375 -12.582031 C 34.679688 -15.011719 36.476562 -17.234375 38.273438 -19.558594 Z M 7.296875 -27.277344 C 7.082031 -26.21875 6.765625 -25.058594 6.34375 -24.105469 C 6.027344 -23.367188 5.074219 -22.730469 4.96875 -22.203125 C 5.179688 -24 6.554688 -25.796875 7.402344 -27.804688 C 7.402344 -27.59375 7.296875 -27.382812 7.296875 -27.277344 Z M 3.382812 -14.90625 C 2.960938 -14.167969 2.960938 -12.792969 2.960938 -11.628906 C 2.855469 -12.898438 2.855469 -14.273438 3.277344 -15.542969 C 3.277344 -15.542969 3.59375 -15.117188 3.382812 -14.90625 Z M 10.996094 -17.445312 C 11.417969 -19.136719 11.949219 -20.828125 12.476562 -22.519531 Z M 3.59375 -16.917969 C 3.488281 -16.597656 3.277344 -16.175781 3.277344 -15.964844 C 3.277344 -16.492188 3.277344 -17.023438 3.804688 -17.234375 Z M 12.898438 -23.789062 C 12.792969 -23.683594 12.792969 -23.683594 12.792969 -23.578125 C 12.792969 -23.789062 12.792969 -24 12.898438 -24.210938 Z M 12.898438 -23.789062 "/></g></g></g><g fill="#dd7210" fill-opacity="1"><g transform="translate(292.100753, 203.937907)"><g><path d="M 55.929688 -25.585938 C 55.824219 -27.488281 54.449219 -26.960938 53.5 -26.113281 C 52.96875 -25.585938 46.097656 -17.972656 46.414062 -17.445312 C 46.625 -17.445312 46.941406 -17.445312 47.15625 -17.65625 C 45.144531 -15.648438 41.972656 -13.746094 39.542969 -11.949219 C 37.109375 -10.042969 34.363281 -6.554688 30.976562 -6.34375 C 30.660156 -6.34375 30.34375 -6.238281 29.921875 -6.34375 C 28.441406 -6.554688 24.847656 -13.003906 24.527344 -14.378906 C 24.632812 -13.320312 27.066406 -8.5625 27.699219 -7.507812 C 25.269531 -10.253906 24 -14.378906 23.367188 -18.078125 C 23.472656 -17.761719 23.683594 -17.445312 23.789062 -17.445312 C 24.105469 -17.550781 23.683594 -19.664062 23.683594 -19.769531 C 23.894531 -19.984375 25.480469 -20.40625 25.902344 -20.617188 C 28.230469 -21.570312 30.449219 -22.730469 32.671875 -24 C 36.792969 -26.21875 40.917969 -28.863281 44.300781 -32.140625 C 48 -35.84375 51.171875 -41.023438 46.308594 -45.25 C 41.445312 -49.375 34.574219 -43.878906 30.871094 -40.597656 C 27.277344 -37.425781 24.210938 -33.726562 21.355469 -29.921875 C 20.089844 -28.019531 18.714844 -26.21875 17.550781 -24.316406 C 16.8125 -23.261719 14.484375 -20.617188 14.695312 -19.347656 C 14.695312 -19.347656 16.703125 -21.78125 16.8125 -21.886719 C 16.070312 -20.828125 15.332031 -19.664062 14.695312 -18.503906 C 14.695312 -18.609375 13.003906 -16.28125 12.792969 -15.859375 L 9.9375 -10.890625 C 11.101562 -15.859375 12.476562 -20.828125 13.957031 -25.796875 C 14.695312 -28.335938 15.332031 -29.816406 17.023438 -31.824219 C 18.503906 -33.621094 19.984375 -35.417969 21.355469 -37.214844 C 24.527344 -41.234375 27.382812 -45.570312 30.238281 -49.902344 C 32.351562 -53.074219 33.9375 -57.199219 36.371094 -59.84375 C 39.332031 -63.332031 41.867188 -67.984375 43.347656 -72.421875 C 44.195312 -74.855469 43.878906 -76.863281 42.714844 -79.296875 C 40.492188 -83.632812 36.054688 -87.542969 31.191406 -85.324219 C 27.171875 -83.523438 24.316406 -79.402344 22.203125 -75.703125 C 20.828125 -73.375 19.558594 -70.945312 18.503906 -68.40625 L 16.386719 -63.964844 C 16.070312 -63.121094 15.753906 -61.746094 15.4375 -61.003906 C 15.4375 -60.898438 15.332031 -60.792969 15.332031 -60.792969 C 14.484375 -58.679688 13.851562 -56.671875 13.109375 -54.554688 C 13.003906 -54.660156 13.640625 -56.671875 13.640625 -56.671875 C 13.109375 -56.671875 11.417969 -51.59375 11.207031 -50.960938 C 10.253906 -48.421875 9.410156 -45.886719 8.5625 -43.242188 C 6.976562 -38.484375 5.710938 -33.621094 4.757812 -28.652344 C 3.910156 -23.261719 2.324219 -17.972656 1.164062 -12.6875 C 0.738281 -10.363281 0 -8.035156 0 -5.710938 C 0 -4.441406 0.210938 -3.066406 0.953125 -2.007812 C 1.164062 -1.796875 2.960938 -0.316406 2.960938 -0.421875 C 2.960938 -0.421875 2.855469 -0.527344 2.855469 -0.632812 C 3.382812 -0.210938 4.441406 0.105469 5.285156 0.210938 C 4.546875 0.210938 3.59375 0.105469 3.382812 -0.210938 C 4.125 0.847656 6.976562 0.105469 7.191406 0.105469 C 9.621094 -0.421875 10.148438 -3.804688 11.417969 -5.710938 L 16.492188 -14.167969 C 16.917969 -11.949219 17.761719 -9.410156 18.820312 -7.507812 C 19.03125 -6.976562 22.097656 -2.75 22.308594 -2.960938 C 22.308594 -3.066406 22.203125 -3.277344 22.203125 -3.382812 C 22.625 -2.855469 23.046875 -2.433594 23.578125 -2.113281 C 23.472656 -2.007812 23.15625 -2.433594 23.046875 -2.21875 C 22.414062 -1.269531 26.960938 0.316406 27.699219 0.316406 C 29.179688 0.210938 30.449219 -0.847656 31.824219 -1.375 C 32.988281 -1.902344 34.148438 -2.324219 35.207031 -3.171875 C 36.476562 -4.230469 35.101562 -3.59375 35.949219 -4.230469 L 35.949219 -4.019531 C 36.265625 -4.441406 41.023438 -7.082031 41.234375 -7.296875 C 43.664062 -9.09375 45.570312 -11.523438 47.683594 -13.746094 C 49.480469 -15.542969 50.960938 -17.550781 52.441406 -19.453125 C 54.027344 -21.25 56.140625 -22.730469 55.929688 -25.480469 Z M 32.988281 -77.179688 C 34.042969 -78.660156 37.109375 -82.363281 39.011719 -79.824219 C 40.917969 -77.289062 37.640625 -71.261719 36.476562 -68.828125 C 34.890625 -65.234375 32.882812 -61.746094 30.871094 -58.363281 L 28.019531 -53.710938 C 26.960938 -52.125 25.585938 -50.644531 24.953125 -49.058594 C 25.375 -49.796875 26.21875 -50.75 26.75 -51.382812 L 29.074219 -55.085938 C 30.871094 -57.9375 32.5625 -60.792969 34.148438 -63.753906 C 34.996094 -65.128906 35.84375 -66.714844 36.792969 -68.40625 C 35.734375 -66.1875 34.574219 -64.070312 33.410156 -61.957031 C 28.757812 -53.5 23.367188 -45.570312 17.550781 -37.957031 C 19.453125 -44.828125 21.460938 -51.699219 24 -58.46875 C 26.433594 -64.8125 28.863281 -71.683594 32.988281 -77.179688 Z M 22.414062 -22.730469 C 25.902344 -27.59375 29.5 -32.351562 33.621094 -36.6875 C 34.574219 -37.746094 39.859375 -43.769531 41.65625 -42.503906 C 43.347656 -41.234375 37.320312 -34.363281 36.476562 -33.410156 C 32.5625 -29.179688 27.804688 -24.847656 22.414062 -22.730469 Z M 23.046875 -60.6875 C 24.316406 -63.753906 25.480469 -66.925781 26.960938 -70.097656 C 27.066406 -70.519531 28.125 -71.894531 28.652344 -72.847656 C 28.125 -71.472656 26.539062 -69.144531 26.328125 -68.511719 C 24.632812 -64.175781 23.367188 -59.738281 21.886719 -55.296875 C 20.195312 -50.007812 18.503906 -44.933594 17.128906 -39.648438 L 17.339844 -40.492188 L 17.234375 -40.386719 C 17.234375 -40.492188 17.339844 -40.492188 17.339844 -40.597656 C 18.714844 -47.261719 20.40625 -54.34375 23.046875 -60.6875 Z M 15.4375 -61.003906 L 15.332031 -60.898438 C 15.4375 -60.898438 15.4375 -61.003906 15.4375 -61.003906 Z M 15.332031 -60.792969 L 15.332031 -60.898438 Z M 15.332031 -60.792969 "/></g></g></g></svg>