<svg xmlns="http://www.w3.org/2000/svg" xmlns:xlink="http://www.w3.org/1999/xlink" width="559" zoomAndPan="magnify" viewBox="0 0 419.25 297.75" height="396" preserveAspectRatio="xMidYMid meet" version="1.0"><defs><g/></defs><g fill="#c6302c" fill-opacity="1"><g transform="translate(140.457649, 130.748423)"><g><path d="M 17.28125 -43.609375 C 18.003906 -43.652344 18.980469 -43.734375 20.042969 -43.777344 C 20.679688 -43.820312 21.742188 -43.863281 22.417969 -43.90625 C 24.074219 -44.03125 29.257812 -44.203125 30.0625 -44.160156 C 33.289062 -44.074219 37.707031 -43.734375 38.046875 -43.609375 C 38.214844 -43.523438 38.128906 -43.4375 37.707031 -43.3125 C 36.984375 -43.183594 35.964844 -42.757812 35.964844 -42.632812 C 35.964844 -42.546875 34.394531 -42.078125 33.460938 -41.910156 C 33.121094 -41.867188 33.121094 -41.699219 33.417969 -41.699219 C 33.546875 -41.699219 33.714844 -41.65625 33.800781 -41.613281 C 33.882812 -41.527344 34.183594 -41.484375 34.648438 -41.484375 C 35.03125 -41.484375 35.414062 -41.484375 35.457031 -41.441406 C 35.625 -41.398438 37.707031 -41.699219 38.128906 -41.824219 C 38.300781 -41.910156 38.511719 -41.910156 38.554688 -41.910156 C 38.808594 -41.867188 39.914062 -42.632812 40 -42.929688 C 40.125 -43.355469 40.085938 -43.691406 39.914062 -43.820312 C 39.785156 -43.863281 39.746094 -44.03125 39.746094 -44.203125 C 39.746094 -44.371094 39.660156 -44.585938 39.617188 -44.671875 C 39.40625 -44.925781 38.386719 -45.347656 37.492188 -45.519531 C 36.644531 -45.6875 36.476562 -45.6875 31.929688 -45.6875 C 28.40625 -45.6875 26.75 -45.648438 25.308594 -45.5625 C 24.035156 -45.476562 20.847656 -45.222656 18.089844 -45.007812 C 18.851562 -46.242188 19.53125 -47.261719 19.957031 -47.8125 C 20.679688 -48.703125 21.527344 -50.019531 21.527344 -50.316406 C 21.570312 -50.445312 21.699219 -50.613281 21.824219 -50.742188 C 22.378906 -51.167969 21.996094 -52.566406 21.316406 -52.652344 C 21.105469 -52.652344 20.933594 -52.738281 20.976562 -52.824219 C 20.976562 -53.035156 19.914062 -53.671875 19.363281 -53.714844 C 18.851562 -53.800781 18.257812 -53.375 18.171875 -52.90625 C 18.171875 -52.78125 17.917969 -52.3125 17.664062 -51.886719 C 17.238281 -51.292969 14.691406 -46.792969 13.503906 -44.671875 L 12.992188 -44.585938 C 12.652344 -44.585938 12.144531 -44.542969 11.804688 -44.5 C 11.464844 -44.5 10.359375 -44.414062 9.339844 -44.289062 C 8.324219 -44.203125 5.859375 -44.03125 3.863281 -43.863281 C 1.867188 -43.691406 -0.339844 -43.523438 -1.019531 -43.4375 C -4.671875 -43.097656 -8.621094 -42.84375 -7.898438 -43.015625 C -7.726562 -43.054688 -7.472656 -43.097656 -7.261719 -43.097656 C -7.089844 -43.097656 -6.921875 -43.140625 -6.921875 -43.183594 C -6.921875 -43.226562 -7.132812 -43.226562 -7.429688 -43.226562 C -7.726562 -43.183594 -9.171875 -43.097656 -10.617188 -42.972656 C -12.058594 -42.84375 -13.546875 -42.757812 -13.886719 -42.714844 C -14.4375 -42.675781 -14.523438 -42.675781 -14.691406 -42.886719 C -15.117188 -43.3125 -16.007812 -43.355469 -16.601562 -43.015625 C -16.984375 -42.757812 -17.027344 -42.757812 -18.046875 -42.757812 C -19.109375 -42.757812 -19.109375 -42.757812 -19.191406 -42.546875 C -19.234375 -42.417969 -19.320312 -42.292969 -19.363281 -42.207031 C -19.574219 -42.078125 -19.574219 -41.359375 -19.363281 -41.359375 C -19.277344 -41.398438 -19.234375 -41.316406 -19.234375 -41.1875 C -19.234375 -40.933594 -18.769531 -40.464844 -18.472656 -40.382812 C -18.132812 -40.339844 -14.945312 -40.507812 -13.757812 -40.636719 C -10.914062 -40.976562 -7.386719 -41.316406 -1.402344 -41.867188 C 5.816406 -42.546875 5.773438 -42.546875 5.859375 -42.589844 C 6.113281 -42.675781 12.355469 -43.269531 12.355469 -43.183594 C 12.355469 -43.183594 12.484375 -43.183594 12.738281 -43.183594 C 6.964844 -32.3125 3.269531 -23.226562 0.46875 -13.078125 C -0.808594 -8.535156 -1.359375 -5.945312 -1.742188 -2.546875 C -2.335938 2.546875 -2.125 5.179688 -0.976562 6.878906 C -0.59375 7.429688 -0.210938 7.855469 -0.128906 7.898438 C -0.0429688 7.898438 0.210938 8.023438 0.46875 8.238281 C 0.679688 8.40625 1.0625 8.664062 1.316406 8.832031 C 1.613281 8.960938 2.039062 9.128906 2.292969 9.171875 C 2.929688 9.257812 3.820312 8.917969 3.863281 8.535156 C 3.863281 8.40625 3.992188 8.195312 4.078125 8.066406 C 4.289062 7.898438 3.820312 5.945312 3.523438 5.945312 C 3.4375 5.902344 3.015625 6.113281 2.589844 6.410156 C 2.164062 6.710938 1.742188 6.921875 1.699219 6.921875 C 1.484375 6.878906 1.1875 5.648438 1.105469 4.714844 C 0.890625 1.527344 1.65625 -4.375 2.84375 -8.28125 C 3.015625 -8.875 3.398438 -10.277344 3.695312 -11.335938 C 5.054688 -16.304688 8.238281 -25.308594 9.511719 -27.726562 C 9.980469 -28.621094 11.039062 -30.914062 11.71875 -32.609375 C 12.695312 -34.945312 13.164062 -35.878906 16.347656 -41.867188 C 16.644531 -42.460938 16.984375 -43.054688 17.28125 -43.609375 Z M 33.882812 -45.050781 C 34.859375 -45.222656 37.324219 -44.925781 38.429688 -44.5 C 38.851562 -44.371094 38.597656 -44.332031 38.128906 -44.457031 C 37.707031 -44.585938 36.09375 -44.753906 35.457031 -44.753906 C 35.160156 -44.753906 34.859375 -44.796875 34.820312 -44.839844 C 34.777344 -44.882812 34.480469 -44.925781 34.140625 -44.882812 C 33.503906 -44.882812 33.332031 -44.96875 33.882812 -45.050781 Z M 32.441406 -45.09375 C 32.867188 -45.09375 33.164062 -45.050781 33.121094 -45.050781 C 32.949219 -45.007812 32.949219 -45.007812 33.121094 -44.925781 C 33.207031 -44.882812 33.207031 -44.882812 33.035156 -44.882812 C 32.949219 -44.882812 32.824219 -44.882812 32.824219 -44.925781 C 32.824219 -44.96875 32.609375 -45.007812 32.3125 -45.007812 C 31.972656 -45.007812 31.71875 -45.007812 31.675781 -45.050781 C 31.632812 -45.09375 31.972656 -45.09375 32.441406 -45.09375 Z M 27.304688 -45.050781 C 27.644531 -45.09375 31.335938 -45.136719 31.253906 -45.050781 C 31.210938 -45.050781 30.488281 -45.007812 29.636719 -44.96875 C 28.789062 -44.96875 28.023438 -44.925781 27.941406 -44.925781 C 27.898438 -44.882812 27.644531 -44.925781 27.429688 -44.925781 C 27.003906 -44.96875 27.003906 -45.007812 27.304688 -45.050781 Z M 21.402344 -44.671875 C 21.527344 -44.753906 21.65625 -44.753906 22.757812 -44.796875 C 23.226562 -44.839844 24.074219 -44.882812 24.628906 -44.925781 C 25.945312 -45.050781 26.792969 -45.050781 26.792969 -44.925781 C 26.792969 -44.882812 26.707031 -44.882812 26.582031 -44.882812 C 26.15625 -44.882812 24.710938 -44.753906 24.585938 -44.710938 C 24.332031 -44.585938 23.820312 -44.542969 23.226562 -44.628906 C 22.886719 -44.710938 22.503906 -44.710938 22.417969 -44.710938 C 22.207031 -44.628906 22.25 -44.628906 22.546875 -44.585938 C 22.84375 -44.542969 22.84375 -44.542969 22.417969 -44.542969 C 22.164062 -44.542969 21.996094 -44.585938 22.039062 -44.628906 C 22.082031 -44.671875 21.953125 -44.671875 21.742188 -44.628906 C 21.527344 -44.628906 21.359375 -44.628906 21.402344 -44.671875 Z M 3.777344 -43.269531 C 3.140625 -43.183594 1.910156 -43.097656 0.933594 -43.015625 C 0.0429688 -42.929688 -1.359375 -42.800781 -2.125 -42.714844 C -4.246094 -42.546875 -4.96875 -42.503906 -4.882812 -42.546875 C -4.839844 -42.589844 -4.203125 -42.632812 -3.4375 -42.714844 C -2.675781 -42.800781 -1.359375 -42.929688 -0.507812 -43.015625 C 1.019531 -43.183594 3.90625 -43.394531 4.753906 -43.4375 C 5.011719 -43.4375 5.265625 -43.480469 5.351562 -43.523438 C 5.394531 -43.566406 5.476562 -43.566406 5.476562 -43.480469 C 5.476562 -43.394531 5.265625 -43.355469 3.777344 -43.269531 Z M 5.945312 -43.394531 C 5.902344 -43.394531 5.859375 -43.4375 5.859375 -43.480469 C 5.859375 -43.523438 5.902344 -43.566406 5.945312 -43.566406 C 6.03125 -43.566406 6.070312 -43.523438 6.070312 -43.480469 C 6.070312 -43.4375 6.03125 -43.394531 5.945312 -43.394531 Z M 6.496094 -43.480469 C 6.371094 -43.480469 6.328125 -43.523438 6.371094 -43.566406 C 6.410156 -43.609375 6.496094 -43.652344 6.582031 -43.652344 C 6.625 -43.652344 6.667969 -43.609375 6.667969 -43.566406 C 6.667969 -43.523438 6.582031 -43.480469 6.496094 -43.480469 Z M 8.238281 -43.652344 C 8.023438 -43.566406 7.898438 -43.566406 7.898438 -43.652344 C 7.898438 -43.691406 8.023438 -43.734375 8.152344 -43.734375 C 8.363281 -43.734375 8.40625 -43.691406 8.238281 -43.652344 Z M 10.445312 -43.777344 C 10.019531 -43.734375 9.382812 -43.691406 9.042969 -43.691406 C 8.703125 -43.652344 8.449219 -43.652344 8.492188 -43.691406 C 8.578125 -43.734375 11.253906 -43.949219 11.253906 -43.90625 C 11.253906 -43.863281 10.914062 -43.820312 10.445312 -43.777344 Z M 0.0429688 0.253906 C 0 0.339844 -0.0429688 1.019531 -0.0429688 1.742188 C 0 2.503906 -0.0429688 3.183594 -0.0859375 3.183594 C -0.210938 3.3125 -0.210938 2.460938 -0.128906 0.808594 C -0.0429688 -0.296875 0 -0.636719 0.0429688 -0.296875 C 0.128906 -0.0859375 0.128906 0.167969 0.0429688 0.253906 Z M 0.253906 -2.460938 C 0.210938 -2.335938 0.167969 -2.378906 0.167969 -2.546875 C 0.210938 -2.761719 0.253906 -2.84375 0.296875 -2.761719 C 0.339844 -2.71875 0.296875 -2.589844 0.253906 -2.460938 Z M 10.148438 -32.738281 C 10.105469 -32.3125 9.597656 -30.953125 9.46875 -30.953125 C 9.425781 -30.996094 9.300781 -30.785156 9.257812 -30.574219 C 9.171875 -30.359375 9.042969 -30.191406 8.960938 -30.191406 C 8.875 -30.191406 8.789062 -29.808594 8.746094 -29.296875 C 8.664062 -28.789062 8.535156 -28.363281 8.40625 -28.28125 C 8.109375 -28.066406 7.726562 -27.089844 7.769531 -26.75 C 7.8125 -26.582031 7.8125 -26.539062 7.726562 -26.625 C 7.644531 -26.707031 7.515625 -26.410156 7.386719 -25.902344 C 7.304688 -25.433594 7.132812 -25.011719 7.089844 -24.96875 C 7.007812 -24.882812 6.878906 -24.585938 6.835938 -24.203125 C 6.75 -23.820312 6.582031 -23.355469 6.453125 -23.140625 C 6.15625 -22.632812 5.691406 -21.359375 5.179688 -19.703125 C 4.96875 -19.023438 4.714844 -18.300781 4.585938 -18.132812 C 4.457031 -17.960938 4.332031 -17.578125 4.289062 -17.324219 C 4.035156 -15.839844 3.777344 -15.03125 3.609375 -15.160156 C 3.523438 -15.203125 3.398438 -15.117188 3.3125 -14.945312 C 3.269531 -14.777344 3.269531 -14.605469 3.355469 -14.5625 C 3.398438 -14.523438 3.355469 -14.183594 3.226562 -13.84375 C 2.378906 -11.039062 2.125 -10.316406 2.082031 -9.894531 C 2.039062 -9.597656 1.910156 -9.171875 1.742188 -8.917969 C 1.484375 -8.492188 1.484375 -8.40625 1.65625 -8.152344 C 1.824219 -7.898438 1.824219 -7.855469 1.570312 -7.6875 C 1.359375 -7.558594 1.230469 -7.089844 0.933594 -5.648438 C 0.550781 -3.480469 0.210938 -2.546875 0.382812 -3.992188 C 0.425781 -4.542969 0.59375 -5.476562 0.765625 -6.113281 C 0.890625 -6.75 1.144531 -7.898438 1.316406 -8.703125 C 1.484375 -9.46875 1.910156 -11.039062 2.25 -12.144531 C 2.589844 -13.289062 3.015625 -14.734375 3.226562 -15.371094 C 3.863281 -17.792969 4.796875 -20.550781 5.902344 -23.3125 C 6.453125 -24.671875 6.710938 -25.136719 6.878906 -25.136719 C 7.089844 -25.09375 7.089844 -25.136719 6.921875 -25.308594 C 6.75 -25.433594 6.878906 -25.773438 7.515625 -27.386719 C 8.746094 -30.402344 10.234375 -33.375 10.148438 -32.738281 Z M 12.695312 -39.703125 C 11.550781 -37.535156 8.621094 -31.292969 7.8125 -29.382812 C 6.625 -26.410156 4.753906 -21.570312 4.714844 -21.316406 C 4.671875 -21.144531 4.035156 -19.277344 3.566406 -18.046875 C 3.480469 -17.792969 3.355469 -17.367188 3.269531 -17.070312 C 3.183594 -16.816406 2.972656 -16.050781 2.800781 -15.414062 C 2.589844 -14.820312 2.25 -13.714844 2.082031 -13.035156 C 1.867188 -12.355469 1.570312 -11.335938 1.359375 -10.742188 C 1.1875 -10.148438 0.933594 -9.257812 0.847656 -8.746094 C 0.722656 -8.238281 0.46875 -7.046875 0.210938 -6.070312 C -0.0429688 -4.96875 -0.382812 -2.972656 -0.679688 -0.679688 C -1.144531 3.015625 -1.359375 3.992188 -1.316406 2.164062 C -1.316406 1.613281 -1.359375 0.808594 -1.402344 0.382812 C -1.527344 -0.679688 -0.890625 -6.15625 -0.59375 -6.070312 C -0.425781 -5.988281 -0.382812 -6.070312 -0.550781 -6.496094 C -0.679688 -6.75 -0.59375 -7.175781 -0.382812 -8.195312 C -0.167969 -8.960938 0.0429688 -9.640625 0.128906 -9.679688 C 0.296875 -9.808594 0.507812 -10.316406 0.339844 -10.316406 C 0.128906 -10.359375 0.210938 -10.65625 1.0625 -13.628906 C 1.484375 -15.117188 1.867188 -16.261719 1.953125 -16.261719 C 2.039062 -16.21875 2.589844 -17.621094 3.140625 -19.320312 C 4.375 -22.972656 6.410156 -28.152344 6.921875 -29 C 7.132812 -29.339844 7.304688 -29.636719 7.304688 -29.722656 C 7.304688 -29.808594 7.515625 -30.273438 7.8125 -30.785156 C 8.789062 -32.695312 9.300781 -33.757812 9.300781 -34.011719 C 9.300781 -34.140625 9.339844 -34.222656 9.382812 -34.222656 C 9.46875 -34.222656 9.554688 -34.351562 9.554688 -34.5625 C 9.679688 -35.117188 11.933594 -39.445312 12.355469 -39.871094 C 12.570312 -40.085938 12.867188 -40.421875 12.992188 -40.636719 C 13.417969 -41.1875 13.332031 -40.933594 12.695312 -39.703125 Z M 12.695312 -39.703125 "/></g></g></g><g fill="#c6302c" fill-opacity="1"><g transform="translate(154.594916, 130.748423)"><g><path d="M 7.515625 -14.011719 C 7.515625 -14.097656 7.558594 -14.226562 7.6875 -14.265625 C 7.898438 -14.394531 8.703125 -15.242188 9.597656 -16.347656 C 11.550781 -18.683594 11.933594 -19.191406 12.609375 -20.339844 C 15.328125 -24.585938 15.710938 -25.390625 15.710938 -26.070312 L 15.667969 -26.496094 L 15.5 -26.199219 C 15.371094 -26.070312 15.328125 -25.902344 15.371094 -25.859375 C 15.5 -25.730469 15.203125 -25.179688 15.074219 -25.265625 C 14.988281 -25.265625 14.945312 -25.265625 15.03125 -25.179688 C 15.117188 -25.09375 13.332031 -22.460938 12.738281 -21.824219 C 12.484375 -21.570312 12.441406 -21.527344 12.484375 -21.742188 C 12.484375 -21.867188 12.570312 -22.039062 12.652344 -22.164062 C 13.121094 -22.800781 14.226562 -24.5 14.734375 -25.308594 C 15.03125 -25.816406 15.371094 -26.328125 15.5 -26.410156 C 15.582031 -26.539062 15.625 -26.667969 15.582031 -26.75 C 15.5 -26.964844 15.328125 -26.75 14.820312 -25.902344 C 14.605469 -25.519531 14.351562 -25.136719 14.308594 -25.050781 C 14.226562 -24.96875 14.097656 -24.710938 13.96875 -24.542969 C 13.886719 -24.375 13.800781 -24.246094 13.757812 -24.332031 C 13.757812 -24.375 14.054688 -24.839844 14.394531 -25.433594 C 14.734375 -25.945312 14.988281 -26.453125 14.902344 -26.496094 C 14.863281 -26.539062 14.902344 -26.625 14.988281 -26.625 C 15.203125 -26.667969 15.839844 -27.855469 15.710938 -27.941406 C 15.667969 -27.980469 15.542969 -27.769531 15.371094 -27.472656 C 15.203125 -27.175781 15.03125 -26.921875 14.945312 -26.921875 C 14.863281 -26.921875 14.480469 -26.367188 14.097656 -25.730469 C 11.804688 -22.039062 7.175781 -16.558594 3.949219 -13.800781 C 2.460938 -12.527344 1.316406 -11.761719 0.636719 -11.632812 L 0.0859375 -11.507812 L 0.0429688 -12.015625 C 0 -12.355469 0 -12.652344 0.0429688 -12.695312 C 0.210938 -12.910156 0.128906 -13.25 -0.0859375 -13.121094 C -0.167969 -13.078125 -0.210938 -13.078125 -0.210938 -13.164062 C -0.210938 -13.25 -0.128906 -13.332031 0 -13.332031 C 0.0859375 -13.332031 0.167969 -13.546875 0.253906 -13.925781 C 0.507812 -15.457031 1.527344 -18.511719 2.207031 -19.789062 C 2.292969 -19.914062 2.503906 -20.382812 2.675781 -20.765625 C 2.84375 -21.144531 3.101562 -21.65625 3.226562 -21.910156 C 3.355469 -22.164062 3.695312 -22.757812 3.992188 -23.3125 C 4.246094 -23.820312 4.628906 -24.5 4.796875 -24.839844 C 4.96875 -25.136719 5.308594 -25.730469 5.476562 -26.15625 C 5.691406 -26.539062 5.945312 -27.089844 6.113281 -27.386719 C 6.242188 -27.683594 6.371094 -28.066406 6.371094 -28.363281 L 6.328125 -28.875 L 5.519531 -29.382812 C 4.839844 -29.851562 4.628906 -29.9375 4.289062 -29.894531 C 3.90625 -29.851562 3.820312 -29.765625 3.269531 -29 C 2.71875 -28.195312 2.503906 -27.8125 1.316406 -25.351562 C 0.976562 -24.628906 0.550781 -23.734375 0.382812 -23.398438 C 0.210938 -23.058594 -0.128906 -22.292969 -0.339844 -21.65625 C -0.550781 -21.0625 -0.847656 -20.253906 -1.019531 -19.828125 C -1.144531 -19.449219 -1.359375 -18.8125 -1.445312 -18.472656 C -1.570312 -18.132812 -1.699219 -17.578125 -1.785156 -17.28125 C -2.039062 -16.347656 -2.675781 -12.910156 -2.632812 -12.609375 C -2.632812 -12.527344 -2.378906 -12.1875 -2.082031 -11.804688 C -1.144531 -10.617188 0.0859375 -9.980469 1.359375 -10.019531 C 1.699219 -10.019531 1.953125 -10.019531 1.996094 -10.019531 C 2.503906 -10.019531 4.714844 -11.253906 5.605469 -12.101562 C 6.710938 -13.078125 7.515625 -13.925781 7.515625 -14.011719 Z M 11.761719 -21.105469 C 11.933594 -21.0625 12.058594 -20.976562 12.101562 -20.976562 C 12.101562 -20.976562 12.015625 -20.933594 11.847656 -20.890625 C 11.675781 -20.890625 11.550781 -20.933594 11.550781 -21.019531 C 11.550781 -21.105469 11.59375 -21.144531 11.761719 -21.105469 Z M 6.070312 -34.734375 C 6.15625 -34.648438 6.242188 -34.523438 6.285156 -34.480469 C 6.285156 -34.394531 6.453125 -34.183594 6.625 -33.96875 C 6.835938 -33.714844 7.007812 -33.628906 7.347656 -33.628906 C 7.558594 -33.628906 7.8125 -33.628906 7.855469 -33.585938 C 8.066406 -33.332031 8.492188 -33.882812 9.300781 -35.457031 C 9.894531 -36.601562 10.488281 -37.578125 11.378906 -38.769531 C 11.675781 -39.148438 11.972656 -39.660156 11.972656 -39.828125 C 11.972656 -40 12.058594 -40.253906 12.101562 -40.339844 C 12.1875 -40.507812 12.144531 -40.679688 11.933594 -41.101562 C 11.550781 -41.953125 11.335938 -41.910156 10.277344 -40.933594 C 9.171875 -39.914062 7.089844 -37.152344 6.371094 -35.878906 C 5.902344 -34.945312 5.859375 -34.859375 6.070312 -34.734375 Z M 6.070312 -34.734375 "/></g></g></g><g fill="#c6302c" fill-opacity="1"><g transform="translate(167.543445, 130.748423)"><g><path d="M 41.996094 -28.917969 C 41.867188 -28.960938 40.804688 -27.855469 38.597656 -25.265625 C 36.433594 -22.757812 32.269531 -18.683594 30.65625 -17.535156 C 29.597656 -16.773438 28.320312 -16.179688 27.769531 -16.261719 L 27.304688 -16.304688 L 27.175781 -17.496094 C 27.046875 -18.300781 27.003906 -20.167969 27.046875 -22.800781 C 27.046875 -26.964844 27.003906 -27.644531 26.539062 -28.238281 C 26.453125 -28.363281 26.367188 -28.492188 26.367188 -28.578125 C 26.328125 -28.660156 26.15625 -28.875 25.988281 -29 C 25.5625 -29.382812 24.035156 -29.511719 23.523438 -29.171875 C 21.742188 -28.152344 18.34375 -24.414062 15.964844 -20.847656 L 15.5 -20.167969 L 15.542969 -20.636719 C 16.136719 -24.035156 16.179688 -24.5 16.179688 -27.003906 C 16.21875 -29.554688 16.179688 -29.597656 15.839844 -30.402344 C 15.414062 -31.335938 15.160156 -31.675781 14.902344 -31.675781 C 14.777344 -31.675781 14.480469 -31.847656 14.226562 -32.058594 C 13.800781 -32.355469 13.671875 -32.398438 12.949219 -32.355469 C 12.3125 -32.3125 12.015625 -32.1875 11.550781 -31.890625 C 10.65625 -31.167969 8.40625 -28.746094 6.75 -26.667969 C 5.945312 -25.605469 5.179688 -24.628906 5.054688 -24.5 C 4.796875 -24.203125 6.539062 -28.109375 7.558594 -30.105469 C 7.984375 -30.996094 8.746094 -32.230469 9.171875 -32.867188 C 9.597656 -33.503906 10.019531 -34.183594 10.105469 -34.394531 C 10.191406 -34.605469 10.316406 -34.820312 10.402344 -34.859375 C 10.699219 -34.988281 10.617188 -35.371094 10.316406 -35.371094 C 10.105469 -35.371094 10.105469 -35.457031 10.105469 -35.835938 C 10.148438 -36.261719 10.105469 -36.347656 9.808594 -36.390625 C 9.640625 -36.390625 9.425781 -36.515625 9.257812 -36.644531 C 9 -36.941406 8.066406 -37.152344 7.6875 -37.027344 C 7.386719 -36.941406 5.816406 -34.777344 4.585938 -32.738281 C 4.078125 -31.929688 3.480469 -31.039062 3.226562 -30.699219 C 2.71875 -30.019531 2.71875 -29.636719 3.226562 -30.019531 C 3.398438 -30.148438 3.609375 -30.191406 3.652344 -30.148438 C 3.695312 -30.0625 2.546875 -27.304688 1.105469 -23.949219 C -1.867188 -17.195312 -4.078125 -11.210938 -4.035156 -9.980469 C -4.035156 -8.960938 -3.398438 -7.472656 -2.886719 -7.472656 C -2.800781 -7.472656 -2.675781 -7.386719 -2.632812 -7.261719 C -2.589844 -7.175781 -2.378906 -7.046875 -2.207031 -7.046875 L -2.207031 -7.007812 C -1.996094 -7.007812 -1.824219 -6.964844 -1.785156 -6.964844 C -1.613281 -6.878906 -0.765625 -8.023438 -0.765625 -8.28125 C -0.765625 -8.363281 -0.59375 -8.664062 -0.339844 -8.917969 C -0.0859375 -9.128906 0.339844 -9.894531 0.679688 -10.617188 C 2.84375 -15.5 7.429688 -22.460938 11.761719 -27.472656 C 12.484375 -28.28125 13.078125 -28.960938 13.164062 -28.960938 C 13.207031 -28.960938 13.25 -28.40625 13.25 -27.726562 C 13.25 -27.046875 13.289062 -26.496094 13.375 -26.453125 C 13.546875 -26.328125 13.417969 -25.136719 13.164062 -23.863281 C 12.824219 -22.335938 12.484375 -19.914062 12.484375 -18.894531 C 12.484375 -17.496094 12.570312 -17.113281 13.164062 -16.433594 C 13.460938 -16.136719 13.800781 -15.625 13.925781 -15.285156 C 14.226562 -14.648438 14.648438 -14.394531 15.117188 -14.734375 C 15.285156 -14.820312 15.542969 -14.945312 15.625 -15.03125 C 15.839844 -15.117188 15.921875 -15.203125 16.261719 -16.007812 C 16.347656 -16.21875 16.601562 -16.6875 16.773438 -17.027344 C 16.941406 -17.324219 17.238281 -17.917969 17.410156 -18.34375 C 18.046875 -19.703125 19.40625 -21.613281 21.1875 -23.695312 C 22.292969 -25.050781 24.414062 -27.089844 24.628906 -27.089844 C 24.710938 -27.089844 24.710938 -26.328125 24.710938 -25.390625 C 24.671875 -23.992188 24.710938 -23.652344 24.839844 -23.652344 C 24.96875 -23.652344 24.96875 -23.523438 24.925781 -23.183594 C 24.882812 -22.929688 24.839844 -21.699219 24.839844 -20.425781 C 24.839844 -18.300781 24.839844 -18.089844 25.09375 -17.496094 C 25.730469 -16.136719 26.878906 -14.734375 27.644531 -14.4375 C 29.171875 -13.800781 30.148438 -13.84375 31.589844 -14.691406 C 32.441406 -15.160156 33.460938 -15.921875 33.546875 -16.09375 C 33.546875 -16.179688 34.011719 -16.644531 34.5625 -17.113281 C 35.074219 -17.621094 35.753906 -18.429688 36.09375 -18.9375 C 36.601562 -19.746094 38.808594 -22.335938 40.464844 -24.074219 C 41.230469 -24.925781 41.78125 -26.070312 41.824219 -27.003906 L 41.867188 -27.683594 L 41.1875 -27.003906 L 41.441406 -27.429688 C 41.824219 -28.109375 41.527344 -28.023438 40.890625 -27.261719 C 40.59375 -26.878906 40.042969 -26.328125 39.660156 -25.988281 C 39.320312 -25.691406 39.746094 -26.199219 40.59375 -27.175781 C 41.484375 -28.109375 42.078125 -28.875 41.996094 -28.917969 Z M -3.015625 -9.46875 C -3.140625 -9.171875 -3.140625 -9.171875 -3.183594 -9.640625 C -3.183594 -9.980469 -3.140625 -10.0625 -3.015625 -9.9375 C -2.929688 -9.851562 -2.929688 -9.722656 -3.015625 -9.46875 Z M -1.019531 -15.328125 C -1.527344 -13.886719 -2.929688 -10.785156 -2.929688 -10.996094 C -2.929688 -11.253906 -2.164062 -13.207031 -1.910156 -13.628906 C -1.785156 -13.84375 -1.570312 -14.308594 -1.445312 -14.734375 C -1.359375 -15.117188 -1.1875 -15.5 -1.144531 -15.542969 C -1.0625 -15.625 -1.019531 -15.796875 -1.019531 -15.921875 C -1.019531 -16.179688 -0.550781 -16.984375 -0.507812 -16.773438 C -0.507812 -16.6875 -0.765625 -16.050781 -1.019531 -15.328125 Z M 3.183594 -25.136719 C 1.742188 -21.953125 1.230469 -20.847656 0.296875 -18.597656 C -0.0859375 -17.707031 -0.425781 -16.941406 -0.425781 -16.941406 C -0.550781 -16.941406 -0.425781 -17.835938 -0.296875 -17.917969 C -0.210938 -17.960938 -0.128906 -18.214844 -0.0859375 -18.429688 C -0.0429688 -18.683594 0.210938 -19.277344 0.425781 -19.828125 C 0.679688 -20.382812 0.890625 -20.890625 0.890625 -20.976562 C 0.890625 -21.105469 0.890625 -21.230469 0.976562 -21.230469 C 1.144531 -21.316406 2.125 -23.398438 2.039062 -23.523438 C 1.953125 -23.734375 2.546875 -24.96875 3.480469 -26.496094 C 3.949219 -27.21875 4.332031 -27.8125 4.375 -27.8125 C 4.417969 -27.8125 3.863281 -26.582031 3.183594 -25.136719 Z M 7.558594 -26.835938 C 7.386719 -26.582031 7.175781 -26.367188 7.132812 -26.367188 C 6.964844 -26.367188 7.046875 -26.453125 7.472656 -26.878906 L 7.855469 -27.304688 Z M 8.832031 -28.449219 C 8.746094 -28.320312 8.621094 -28.238281 8.578125 -28.238281 C 8.578125 -28.238281 8.621094 -28.320312 8.703125 -28.449219 C 8.789062 -28.578125 8.875 -28.660156 8.917969 -28.660156 C 8.960938 -28.660156 8.917969 -28.578125 8.832031 -28.449219 Z M 8.832031 -28.449219 "/></g></g></g><g fill="#c6302c" fill-opacity="1"><g transform="translate(205.030911, 130.748423)"><g><path d="M 23.863281 -24.839844 C 24.117188 -25.136719 24.457031 -25.648438 24.628906 -26.027344 C 24.839844 -26.410156 25.265625 -27.046875 25.605469 -27.429688 C 26.242188 -28.195312 26.453125 -28.492188 26.070312 -28.195312 C 25.945312 -28.066406 25.902344 -28.066406 25.902344 -28.238281 C 25.902344 -28.363281 25.988281 -28.621094 26.113281 -28.746094 C 26.539062 -29.339844 26.113281 -29.171875 25.476562 -28.492188 C 24.882812 -27.855469 24.925781 -27.898438 25.648438 -28.832031 C 26.15625 -29.425781 26.496094 -29.9375 26.453125 -29.976562 C 26.367188 -30.0625 25.730469 -29.339844 24.375 -27.855469 C 24.035156 -27.472656 23.269531 -26.667969 22.675781 -26.070312 C 22.121094 -25.476562 21.402344 -24.753906 21.144531 -24.414062 C 20.382812 -23.609375 19.066406 -22.417969 18.214844 -21.742188 C 17.792969 -21.402344 16.941406 -20.722656 16.347656 -20.167969 C 15.242188 -19.277344 14.863281 -19.023438 15.203125 -19.449219 C 15.371094 -19.660156 15.328125 -19.660156 15.117188 -19.488281 C 14.523438 -19.066406 13.96875 -18.597656 13.96875 -18.472656 C 13.96875 -18.300781 13.332031 -17.792969 13.078125 -17.792969 C 12.992188 -17.792969 12.441406 -17.496094 11.890625 -17.15625 C 9.171875 -15.414062 6.496094 -14.394531 3.777344 -14.140625 C 2.589844 -14.011719 1.316406 -14.394531 1.316406 -14.863281 C 1.316406 -14.902344 1.699219 -15.117188 2.125 -15.328125 C 4.457031 -16.304688 5.691406 -17.027344 8.621094 -19.066406 C 9.679688 -19.789062 11.292969 -21.484375 12.015625 -22.546875 C 12.738281 -23.609375 13.121094 -24.542969 13.207031 -25.519531 C 13.332031 -26.539062 12.949219 -27.304688 11.71875 -28.492188 C 10.785156 -29.425781 10.0625 -29.851562 9.042969 -30.105469 C 8.746094 -30.148438 8.195312 -30.273438 7.8125 -30.359375 C 7.429688 -30.445312 6.964844 -30.488281 6.75 -30.402344 C 6.371094 -30.359375 5.519531 -29.554688 4.585938 -28.40625 C 4.203125 -27.980469 3.777344 -27.472656 3.566406 -27.261719 C 2.675781 -26.328125 0.808594 -23.355469 -0.0429688 -21.527344 C -0.976562 -19.449219 -1.273438 -17.535156 -0.890625 -16.136719 C -0.847656 -15.964844 -0.890625 -15.839844 -1.144531 -15.753906 C -1.527344 -15.542969 -1.527344 -15.457031 -1.105469 -15.371094 C -0.847656 -15.328125 -0.636719 -15.160156 -0.425781 -14.777344 C 0.167969 -13.757812 2.503906 -11.71875 2.84375 -11.933594 C 2.929688 -11.972656 3.101562 -11.933594 3.269531 -11.804688 C 4.035156 -11.378906 8.449219 -12.058594 9.597656 -12.824219 C 9.765625 -12.910156 10.488281 -13.289062 11.167969 -13.671875 C 12.910156 -14.5625 14.988281 -15.964844 16.730469 -17.367188 C 17.535156 -18.046875 22.417969 -23.015625 23.015625 -23.820312 C 23.269531 -24.074219 23.652344 -24.542969 23.863281 -24.839844 Z M 2.589844 -20.210938 C 3.4375 -21.910156 4.753906 -23.863281 6.371094 -25.859375 C 8.152344 -28.066406 8.917969 -28.578125 9.9375 -28.320312 C 10.65625 -28.109375 10.828125 -27.941406 10.914062 -27.386719 C 10.996094 -26.792969 10.53125 -25.222656 10.019531 -24.5 C 9.46875 -23.734375 7.515625 -21.742188 6.539062 -20.890625 C 6.03125 -20.507812 5.5625 -20.128906 5.5625 -20.085938 C 5.308594 -19.828125 4.078125 -18.894531 2.929688 -18.171875 C 1.445312 -17.15625 1.316406 -17.070312 1.316406 -17.113281 C 1.316406 -17.410156 1.996094 -18.980469 2.589844 -20.210938 Z M 19.914062 -21.230469 C 19.703125 -20.976562 19.277344 -20.507812 18.894531 -20.167969 C 18.429688 -19.703125 18.511719 -19.828125 19.191406 -20.59375 C 20.167969 -21.699219 20.550781 -21.996094 19.914062 -21.230469 Z M 19.914062 -21.230469 "/></g></g></g><g fill="#c6302c" fill-opacity="1"><g transform="translate(226.300602, 130.748423)"><g/></g></g><g fill="#c6302c" fill-opacity="1"><g transform="translate(242.433249, 130.748423)"><g><path d="M 17.28125 -43.609375 C 18.003906 -43.652344 18.980469 -43.734375 20.042969 -43.777344 C 20.679688 -43.820312 21.742188 -43.863281 22.417969 -43.90625 C 24.074219 -44.03125 29.257812 -44.203125 30.0625 -44.160156 C 33.289062 -44.074219 37.707031 -43.734375 38.046875 -43.609375 C 38.214844 -43.523438 38.128906 -43.4375 37.707031 -43.3125 C 36.984375 -43.183594 35.964844 -42.757812 35.964844 -42.632812 C 35.964844 -42.546875 34.394531 -42.078125 33.460938 -41.910156 C 33.121094 -41.867188 33.121094 -41.699219 33.417969 -41.699219 C 33.546875 -41.699219 33.714844 -41.65625 33.800781 -41.613281 C 33.882812 -41.527344 34.183594 -41.484375 34.648438 -41.484375 C 35.03125 -41.484375 35.414062 -41.484375 35.457031 -41.441406 C 35.625 -41.398438 37.707031 -41.699219 38.128906 -41.824219 C 38.300781 -41.910156 38.511719 -41.910156 38.554688 -41.910156 C 38.808594 -41.867188 39.914062 -42.632812 40 -42.929688 C 40.125 -43.355469 40.085938 -43.691406 39.914062 -43.820312 C 39.785156 -43.863281 39.746094 -44.03125 39.746094 -44.203125 C 39.746094 -44.371094 39.660156 -44.585938 39.617188 -44.671875 C 39.40625 -44.925781 38.386719 -45.347656 37.492188 -45.519531 C 36.644531 -45.6875 36.476562 -45.6875 31.929688 -45.6875 C 28.40625 -45.6875 26.75 -45.648438 25.308594 -45.5625 C 24.035156 -45.476562 20.847656 -45.222656 18.089844 -45.007812 C 18.851562 -46.242188 19.53125 -47.261719 19.957031 -47.8125 C 20.679688 -48.703125 21.527344 -50.019531 21.527344 -50.316406 C 21.570312 -50.445312 21.699219 -50.613281 21.824219 -50.742188 C 22.378906 -51.167969 21.996094 -52.566406 21.316406 -52.652344 C 21.105469 -52.652344 20.933594 -52.738281 20.976562 -52.824219 C 20.976562 -53.035156 19.914062 -53.671875 19.363281 -53.714844 C 18.851562 -53.800781 18.257812 -53.375 18.171875 -52.90625 C 18.171875 -52.78125 17.917969 -52.3125 17.664062 -51.886719 C 17.238281 -51.292969 14.691406 -46.792969 13.503906 -44.671875 L 12.992188 -44.585938 C 12.652344 -44.585938 12.144531 -44.542969 11.804688 -44.5 C 11.464844 -44.5 10.359375 -44.414062 9.339844 -44.289062 C 8.324219 -44.203125 5.859375 -44.03125 3.863281 -43.863281 C 1.867188 -43.691406 -0.339844 -43.523438 -1.019531 -43.4375 C -4.671875 -43.097656 -8.621094 -42.84375 -7.898438 -43.015625 C -7.726562 -43.054688 -7.472656 -43.097656 -7.261719 -43.097656 C -7.089844 -43.097656 -6.921875 -43.140625 -6.921875 -43.183594 C -6.921875 -43.226562 -7.132812 -43.226562 -7.429688 -43.226562 C -7.726562 -43.183594 -9.171875 -43.097656 -10.617188 -42.972656 C -12.058594 -42.84375 -13.546875 -42.757812 -13.886719 -42.714844 C -14.4375 -42.675781 -14.523438 -42.675781 -14.691406 -42.886719 C -15.117188 -43.3125 -16.007812 -43.355469 -16.601562 -43.015625 C -16.984375 -42.757812 -17.027344 -42.757812 -18.046875 -42.757812 C -19.109375 -42.757812 -19.109375 -42.757812 -19.191406 -42.546875 C -19.234375 -42.417969 -19.320312 -42.292969 -19.363281 -42.207031 C -19.574219 -42.078125 -19.574219 -41.359375 -19.363281 -41.359375 C -19.277344 -41.398438 -19.234375 -41.316406 -19.234375 -41.1875 C -19.234375 -40.933594 -18.769531 -40.464844 -18.472656 -40.382812 C -18.132812 -40.339844 -14.945312 -40.507812 -13.757812 -40.636719 C -10.914062 -40.976562 -7.386719 -41.316406 -1.402344 -41.867188 C 5.816406 -42.546875 5.773438 -42.546875 5.859375 -42.589844 C 6.113281 -42.675781 12.355469 -43.269531 12.355469 -43.183594 C 12.355469 -43.183594 12.484375 -43.183594 12.738281 -43.183594 C 6.964844 -32.3125 3.269531 -23.226562 0.46875 -13.078125 C -0.808594 -8.535156 -1.359375 -5.945312 -1.742188 -2.546875 C -2.335938 2.546875 -2.125 5.179688 -0.976562 6.878906 C -0.59375 7.429688 -0.210938 7.855469 -0.128906 7.898438 C -0.0429688 7.898438 0.210938 8.023438 0.46875 8.238281 C 0.679688 8.40625 1.0625 8.664062 1.316406 8.832031 C 1.613281 8.960938 2.039062 9.128906 2.292969 9.171875 C 2.929688 9.257812 3.820312 8.917969 3.863281 8.535156 C 3.863281 8.40625 3.992188 8.195312 4.078125 8.066406 C 4.289062 7.898438 3.820312 5.945312 3.523438 5.945312 C 3.4375 5.902344 3.015625 6.113281 2.589844 6.410156 C 2.164062 6.710938 1.742188 6.921875 1.699219 6.921875 C 1.484375 6.878906 1.1875 5.648438 1.105469 4.714844 C 0.890625 1.527344 1.65625 -4.375 2.84375 -8.28125 C 3.015625 -8.875 3.398438 -10.277344 3.695312 -11.335938 C 5.054688 -16.304688 8.238281 -25.308594 9.511719 -27.726562 C 9.980469 -28.621094 11.039062 -30.914062 11.71875 -32.609375 C 12.695312 -34.945312 13.164062 -35.878906 16.347656 -41.867188 C 16.644531 -42.460938 16.984375 -43.054688 17.28125 -43.609375 Z M 33.882812 -45.050781 C 34.859375 -45.222656 37.324219 -44.925781 38.429688 -44.5 C 38.851562 -44.371094 38.597656 -44.332031 38.128906 -44.457031 C 37.707031 -44.585938 36.09375 -44.753906 35.457031 -44.753906 C 35.160156 -44.753906 34.859375 -44.796875 34.820312 -44.839844 C 34.777344 -44.882812 34.480469 -44.925781 34.140625 -44.882812 C 33.503906 -44.882812 33.332031 -44.96875 33.882812 -45.050781 Z M 32.441406 -45.09375 C 32.867188 -45.09375 33.164062 -45.050781 33.121094 -45.050781 C 32.949219 -45.007812 32.949219 -45.007812 33.121094 -44.925781 C 33.207031 -44.882812 33.207031 -44.882812 33.035156 -44.882812 C 32.949219 -44.882812 32.824219 -44.882812 32.824219 -44.925781 C 32.824219 -44.96875 32.609375 -45.007812 32.3125 -45.007812 C 31.972656 -45.007812 31.71875 -45.007812 31.675781 -45.050781 C 31.632812 -45.09375 31.972656 -45.09375 32.441406 -45.09375 Z M 27.304688 -45.050781 C 27.644531 -45.09375 31.335938 -45.136719 31.253906 -45.050781 C 31.210938 -45.050781 30.488281 -45.007812 29.636719 -44.96875 C 28.789062 -44.96875 28.023438 -44.925781 27.941406 -44.925781 C 27.898438 -44.882812 27.644531 -44.925781 27.429688 -44.925781 C 27.003906 -44.96875 27.003906 -45.007812 27.304688 -45.050781 Z M 21.402344 -44.671875 C 21.527344 -44.753906 21.65625 -44.753906 22.757812 -44.796875 C 23.226562 -44.839844 24.074219 -44.882812 24.628906 -44.925781 C 25.945312 -45.050781 26.792969 -45.050781 26.792969 -44.925781 C 26.792969 -44.882812 26.707031 -44.882812 26.582031 -44.882812 C 26.15625 -44.882812 24.710938 -44.753906 24.585938 -44.710938 C 24.332031 -44.585938 23.820312 -44.542969 23.226562 -44.628906 C 22.886719 -44.710938 22.503906 -44.710938 22.417969 -44.710938 C 22.207031 -44.628906 22.25 -44.628906 22.546875 -44.585938 C 22.84375 -44.542969 22.84375 -44.542969 22.417969 -44.542969 C 22.164062 -44.542969 21.996094 -44.585938 22.039062 -44.628906 C 22.082031 -44.671875 21.953125 -44.671875 21.742188 -44.628906 C 21.527344 -44.628906 21.359375 -44.628906 21.402344 -44.671875 Z M 3.777344 -43.269531 C 3.140625 -43.183594 1.910156 -43.097656 0.933594 -43.015625 C 0.0429688 -42.929688 -1.359375 -42.800781 -2.125 -42.714844 C -4.246094 -42.546875 -4.96875 -42.503906 -4.882812 -42.546875 C -4.839844 -42.589844 -4.203125 -42.632812 -3.4375 -42.714844 C -2.675781 -42.800781 -1.359375 -42.929688 -0.507812 -43.015625 C 1.019531 -43.183594 3.90625 -43.394531 4.753906 -43.4375 C 5.011719 -43.4375 5.265625 -43.480469 5.351562 -43.523438 C 5.394531 -43.566406 5.476562 -43.566406 5.476562 -43.480469 C 5.476562 -43.394531 5.265625 -43.355469 3.777344 -43.269531 Z M 5.945312 -43.394531 C 5.902344 -43.394531 5.859375 -43.4375 5.859375 -43.480469 C 5.859375 -43.523438 5.902344 -43.566406 5.945312 -43.566406 C 6.03125 -43.566406 6.070312 -43.523438 6.070312 -43.480469 C 6.070312 -43.4375 6.03125 -43.394531 5.945312 -43.394531 Z M 6.496094 -43.480469 C 6.371094 -43.480469 6.328125 -43.523438 6.371094 -43.566406 C 6.410156 -43.609375 6.496094 -43.652344 6.582031 -43.652344 C 6.625 -43.652344 6.667969 -43.609375 6.667969 -43.566406 C 6.667969 -43.523438 6.582031 -43.480469 6.496094 -43.480469 Z M 8.238281 -43.652344 C 8.023438 -43.566406 7.898438 -43.566406 7.898438 -43.652344 C 7.898438 -43.691406 8.023438 -43.734375 8.152344 -43.734375 C 8.363281 -43.734375 8.40625 -43.691406 8.238281 -43.652344 Z M 10.445312 -43.777344 C 10.019531 -43.734375 9.382812 -43.691406 9.042969 -43.691406 C 8.703125 -43.652344 8.449219 -43.652344 8.492188 -43.691406 C 8.578125 -43.734375 11.253906 -43.949219 11.253906 -43.90625 C 11.253906 -43.863281 10.914062 -43.820312 10.445312 -43.777344 Z M 0.0429688 0.253906 C 0 0.339844 -0.0429688 1.019531 -0.0429688 1.742188 C 0 2.503906 -0.0429688 3.183594 -0.0859375 3.183594 C -0.210938 3.3125 -0.210938 2.460938 -0.128906 0.808594 C -0.0429688 -0.296875 0 -0.636719 0.0429688 -0.296875 C 0.128906 -0.0859375 0.128906 0.167969 0.0429688 0.253906 Z M 0.253906 -2.460938 C 0.210938 -2.335938 0.167969 -2.378906 0.167969 -2.546875 C 0.210938 -2.761719 0.253906 -2.84375 0.296875 -2.761719 C 0.339844 -2.71875 0.296875 -2.589844 0.253906 -2.460938 Z M 10.148438 -32.738281 C 10.105469 -32.3125 9.597656 -30.953125 9.46875 -30.953125 C 9.425781 -30.996094 9.300781 -30.785156 9.257812 -30.574219 C 9.171875 -30.359375 9.042969 -30.191406 8.960938 -30.191406 C 8.875 -30.191406 8.789062 -29.808594 8.746094 -29.296875 C 8.664062 -28.789062 8.535156 -28.363281 8.40625 -28.28125 C 8.109375 -28.066406 7.726562 -27.089844 7.769531 -26.75 C 7.8125 -26.582031 7.8125 -26.539062 7.726562 -26.625 C 7.644531 -26.707031 7.515625 -26.410156 7.386719 -25.902344 C 7.304688 -25.433594 7.132812 -25.011719 7.089844 -24.96875 C 7.007812 -24.882812 6.878906 -24.585938 6.835938 -24.203125 C 6.75 -23.820312 6.582031 -23.355469 6.453125 -23.140625 C 6.15625 -22.632812 5.691406 -21.359375 5.179688 -19.703125 C 4.96875 -19.023438 4.714844 -18.300781 4.585938 -18.132812 C 4.457031 -17.960938 4.332031 -17.578125 4.289062 -17.324219 C 4.035156 -15.839844 3.777344 -15.03125 3.609375 -15.160156 C 3.523438 -15.203125 3.398438 -15.117188 3.3125 -14.945312 C 3.269531 -14.777344 3.269531 -14.605469 3.355469 -14.5625 C 3.398438 -14.523438 3.355469 -14.183594 3.226562 -13.84375 C 2.378906 -11.039062 2.125 -10.316406 2.082031 -9.894531 C 2.039062 -9.597656 1.910156 -9.171875 1.742188 -8.917969 C 1.484375 -8.492188 1.484375 -8.40625 1.65625 -8.152344 C 1.824219 -7.898438 1.824219 -7.855469 1.570312 -7.6875 C 1.359375 -7.558594 1.230469 -7.089844 0.933594 -5.648438 C 0.550781 -3.480469 0.210938 -2.546875 0.382812 -3.992188 C 0.425781 -4.542969 0.59375 -5.476562 0.765625 -6.113281 C 0.890625 -6.75 1.144531 -7.898438 1.316406 -8.703125 C 1.484375 -9.46875 1.910156 -11.039062 2.25 -12.144531 C 2.589844 -13.289062 3.015625 -14.734375 3.226562 -15.371094 C 3.863281 -17.792969 4.796875 -20.550781 5.902344 -23.3125 C 6.453125 -24.671875 6.710938 -25.136719 6.878906 -25.136719 C 7.089844 -25.09375 7.089844 -25.136719 6.921875 -25.308594 C 6.75 -25.433594 6.878906 -25.773438 7.515625 -27.386719 C 8.746094 -30.402344 10.234375 -33.375 10.148438 -32.738281 Z M 12.695312 -39.703125 C 11.550781 -37.535156 8.621094 -31.292969 7.8125 -29.382812 C 6.625 -26.410156 4.753906 -21.570312 4.714844 -21.316406 C 4.671875 -21.144531 4.035156 -19.277344 3.566406 -18.046875 C 3.480469 -17.792969 3.355469 -17.367188 3.269531 -17.070312 C 3.183594 -16.816406 2.972656 -16.050781 2.800781 -15.414062 C 2.589844 -14.820312 2.25 -13.714844 2.082031 -13.035156 C 1.867188 -12.355469 1.570312 -11.335938 1.359375 -10.742188 C 1.1875 -10.148438 0.933594 -9.257812 0.847656 -8.746094 C 0.722656 -8.238281 0.46875 -7.046875 0.210938 -6.070312 C -0.0429688 -4.96875 -0.382812 -2.972656 -0.679688 -0.679688 C -1.144531 3.015625 -1.359375 3.992188 -1.316406 2.164062 C -1.316406 1.613281 -1.359375 0.808594 -1.402344 0.382812 C -1.527344 -0.679688 -0.890625 -6.15625 -0.59375 -6.070312 C -0.425781 -5.988281 -0.382812 -6.070312 -0.550781 -6.496094 C -0.679688 -6.75 -0.59375 -7.175781 -0.382812 -8.195312 C -0.167969 -8.960938 0.0429688 -9.640625 0.128906 -9.679688 C 0.296875 -9.808594 0.507812 -10.316406 0.339844 -10.316406 C 0.128906 -10.359375 0.210938 -10.65625 1.0625 -13.628906 C 1.484375 -15.117188 1.867188 -16.261719 1.953125 -16.261719 C 2.039062 -16.21875 2.589844 -17.621094 3.140625 -19.320312 C 4.375 -22.972656 6.410156 -28.152344 6.921875 -29 C 7.132812 -29.339844 7.304688 -29.636719 7.304688 -29.722656 C 7.304688 -29.808594 7.515625 -30.273438 7.8125 -30.785156 C 8.789062 -32.695312 9.300781 -33.757812 9.300781 -34.011719 C 9.300781 -34.140625 9.339844 -34.222656 9.382812 -34.222656 C 9.46875 -34.222656 9.554688 -34.351562 9.554688 -34.5625 C 9.679688 -35.117188 11.933594 -39.445312 12.355469 -39.871094 C 12.570312 -40.085938 12.867188 -40.421875 12.992188 -40.636719 C 13.417969 -41.1875 13.332031 -40.933594 12.695312 -39.703125 Z M 12.695312 -39.703125 "/></g></g></g><g fill="#c6302c" fill-opacity="1"><g transform="translate(256.570516, 130.748423)"><g><path d="M 9.554688 -26.410156 C 12.273438 -26.113281 16.601562 -26.453125 20.679688 -27.34375 C 20.679688 -27.34375 20.679688 -27.386719 20.679688 -27.386719 C 20.679688 -27.386719 20.679688 -27.386719 20.722656 -27.386719 C 20.765625 -27.429688 20.804688 -27.472656 20.804688 -27.515625 C 20.847656 -27.515625 20.847656 -27.515625 20.847656 -27.515625 C 20.847656 -27.558594 20.847656 -27.558594 20.890625 -27.601562 C 20.890625 -27.644531 20.933594 -27.683594 20.933594 -27.726562 C 20.933594 -27.726562 20.933594 -27.726562 20.976562 -27.769531 C 20.976562 -27.8125 21.019531 -27.898438 21.019531 -27.980469 C 21.019531 -28.023438 21.019531 -28.238281 21.019531 -28.28125 C 21.019531 -28.320312 20.976562 -28.535156 21.019531 -28.449219 C 21.019531 -28.492188 20.976562 -28.578125 20.976562 -28.660156 C 20.933594 -28.660156 20.890625 -28.789062 20.890625 -28.832031 C 20.890625 -28.832031 20.847656 -28.832031 20.847656 -28.875 C 20.847656 -28.875 20.804688 -28.875 20.804688 -28.917969 C 20.167969 -28.789062 19.746094 -28.703125 19.703125 -28.746094 C 19.660156 -28.789062 20 -28.875 20.425781 -28.960938 C 20.507812 -28.960938 20.59375 -29 20.722656 -29 C 20.679688 -29.042969 20.679688 -29.042969 20.636719 -29.085938 C 20.636719 -29.085938 20.59375 -29.085938 20.59375 -29.085938 C 20.550781 -29.128906 20.507812 -29.128906 20.507812 -29.128906 C 20.507812 -29.128906 20.464844 -29.171875 20.425781 -29.171875 C 20.339844 -29.214844 20.296875 -29.214844 20.210938 -29.214844 C 20.167969 -29.214844 19.957031 -29.257812 19.914062 -29.257812 C 19.789062 -29.257812 19.703125 -29.257812 19.574219 -29.257812 C 19.40625 -29.257812 19.234375 -29.257812 19.066406 -29.257812 C 16.984375 -28.832031 15.242188 -28.578125 13.375 -28.449219 C 10.359375 -28.195312 7.8125 -28.363281 7.8125 -28.746094 C 7.855469 -29 6.964844 -29.976562 6.539062 -30.191406 C 6.070312 -30.445312 5.5625 -30.488281 5.09375 -30.316406 C 4.796875 -30.191406 4.671875 -30.234375 4.332031 -30.445312 C 3.90625 -30.699219 3.183594 -30.828125 3.101562 -30.65625 C 3.058594 -30.613281 3.140625 -30.359375 3.3125 -30.148438 L 3.609375 -29.722656 L 2.800781 -29 C 0.679688 -27.089844 -1.1875 -24.289062 -2.082031 -21.78125 C -2.71875 -19.957031 -2.546875 -16.773438 -1.742188 -15.753906 C -1.527344 -15.5 -1.359375 -15.242188 -1.359375 -15.160156 C -1.402344 -14.734375 -0.339844 -13.714844 0.296875 -13.546875 C 1.019531 -13.332031 1.484375 -13.332031 1.867188 -13.503906 C 2.039062 -13.546875 2.632812 -13.757812 3.183594 -13.886719 C 4.332031 -14.183594 5.054688 -14.5625 6.15625 -15.542969 C 7.347656 -16.601562 8.449219 -18.089844 9.042969 -19.449219 C 9.46875 -20.382812 9.554688 -20.722656 9.597656 -21.699219 C 9.722656 -23.140625 9.554688 -24.203125 9.085938 -25.433594 C 8.875 -25.988281 8.664062 -26.453125 8.664062 -26.496094 C 8.621094 -26.539062 9.042969 -26.496094 9.554688 -26.410156 Z M 18.640625 -28.535156 C 18.769531 -28.621094 19.660156 -28.789062 19.53125 -28.703125 C 19.488281 -28.660156 19.234375 -28.578125 18.980469 -28.535156 C 18.726562 -28.492188 18.554688 -28.492188 18.640625 -28.535156 Z M 5.945312 -18.8125 C 4.714844 -17.453125 3.820312 -16.773438 2.460938 -16.179688 C 1.445312 -15.753906 0.976562 -15.625 0.382812 -15.625 C -0.339844 -15.625 -0.382812 -15.625 -0.46875 -15.964844 C -0.765625 -16.898438 -0.46875 -18.9375 0.167969 -20.507812 C 0.679688 -21.78125 2.460938 -24.839844 3.058594 -25.390625 C 3.3125 -25.648438 3.480469 -25.902344 3.523438 -25.988281 C 3.523438 -26.113281 5.308594 -27.855469 5.476562 -27.898438 C 5.5625 -27.941406 5.5625 -27.855469 5.5625 -27.769531 C 5.433594 -27.515625 5.648438 -27.175781 5.902344 -27.175781 C 6.03125 -27.132812 6.15625 -27.089844 6.199219 -27.003906 C 6.242188 -26.964844 6.453125 -26.878906 6.710938 -26.878906 C 7.089844 -26.878906 7.175781 -26.835938 7.472656 -26.328125 C 8.621094 -24.332031 7.941406 -21.0625 5.945312 -18.8125 Z M 5.945312 -18.8125 "/></g></g></g><g fill="#ffcf00" fill-opacity="1"><g transform="translate(63.854477, 192.97945)"><g><path d="M 46.449219 -59.492188 C 46.335938 -61.09375 44.621094 -59.835938 43.703125 -59.835938 C 39.128906 -59.609375 34.550781 -59.609375 30.089844 -59.378906 C 30.089844 -59.492188 30.320312 -59.953125 30.664062 -60.636719 C 30.203125 -59.835938 29.859375 -59.378906 29.519531 -59.378906 C 32.949219 -66.359375 36.613281 -73.335938 40.960938 -79.746094 C 40.84375 -79.515625 39.128906 -76.65625 39.242188 -76.65625 C 39.585938 -76.542969 43.820312 -82.375 43.933594 -83.175781 C 43.933594 -83.632812 42.902344 -82.492188 42.902344 -82.605469 C 43.589844 -83.292969 44.734375 -83.863281 45.078125 -84.777344 C 45.878906 -87.066406 43.476562 -88.097656 41.761719 -88.441406 C 38.214844 -89.125 34.207031 -88.667969 31.921875 -85.695312 C 29.746094 -83.0625 28.144531 -79.972656 26.773438 -76.882812 C 26.085938 -75.511719 25.171875 -75.167969 24.253906 -73.910156 C 22.882812 -71.964844 21.96875 -69.675781 20.9375 -67.503906 C 20.023438 -65.558594 19.105469 -63.5 18.304688 -61.4375 C 17.847656 -60.410156 17.847656 -59.609375 16.820312 -59.265625 C 15.789062 -58.808594 13.84375 -59.152344 12.699219 -59.035156 C 8.238281 -58.464844 3.890625 -58.691406 -0.570312 -58.234375 C -2.859375 -58.121094 -5.148438 -58.121094 -7.324219 -57.320312 C -7.78125 -57.207031 -10.296875 -56.632812 -10.527344 -56.289062 C -11.210938 -55.03125 -8.464844 -54.917969 -7.894531 -54.804688 C -3.546875 -54.230469 1.945312 -53.773438 6.292969 -54.574219 C 9.265625 -55.144531 12.355469 -54.917969 15.558594 -55.144531 C 13.957031 -51.714844 12.699219 -48.050781 11.441406 -44.390625 L 10.066406 -40.386719 C 9.609375 -39.128906 8.125 -36.726562 8.125 -35.351562 C 8.125 -35.125 8.464844 -35.695312 8.695312 -36.269531 C 8.125 -34.550781 7.4375 -32.835938 6.980469 -31.121094 C 6.980469 -31.234375 7.324219 -32.605469 7.207031 -32.605469 C 6.636719 -32.605469 4.347656 -25.628906 4.117188 -25.054688 C 2.976562 -21.625 1.714844 -18.191406 1.144531 -14.53125 C 0.457031 -10.867188 -0.457031 -7.324219 -1.257812 -3.777344 C -1.714844 -1.945312 -2.171875 -0.230469 -2.402344 1.601562 C -2.632812 2.515625 -2.859375 3.546875 -2.859375 4.460938 C -2.859375 4.691406 -2.859375 6.179688 -2.632812 5.71875 L -2.859375 8.007812 L -2.859375 6.292969 C -3.546875 7.09375 -2.859375 10.753906 -2.746094 11.441406 C -2.289062 13.730469 -1.144531 15.789062 0.914062 17.160156 C 2.746094 18.535156 5.605469 19.792969 7.78125 18.761719 C 10.640625 17.390625 13.042969 14.1875 14.875 11.898438 C 18.878906 7.207031 22.539062 2.289062 26.199219 -2.632812 C 29.519531 -7.207031 32.949219 -11.671875 35.8125 -16.476562 C 37.414062 -19.222656 40.5 -21.738281 41.53125 -24.828125 C 42.101562 -26.316406 41.761719 -28.144531 39.929688 -27.800781 C 38.441406 -27.457031 36.382812 -23.453125 35.46875 -22.308594 C 31.347656 -17.160156 27.457031 -11.898438 23.339844 -6.75 L 16.703125 1.371094 C 15.675781 2.515625 14.644531 3.777344 13.5 4.917969 C 13.042969 5.492188 10.183594 7.78125 10.296875 8.464844 C 10.296875 8.695312 11.554688 7.664062 12.011719 7.324219 C 11.441406 8.007812 10.753906 8.582031 10.183594 9.152344 C 10.296875 9.039062 7.894531 10.410156 7.550781 10.183594 C 5.378906 9.265625 7.324219 2.632812 7.664062 1.03125 C 9.726562 -8.238281 12.8125 -17.621094 15.902344 -26.542969 C 17.734375 -31.464844 19.5625 -36.152344 21.625 -40.960938 C 22.652344 -43.363281 23.683594 -45.878906 24.828125 -48.28125 L 26.429688 -52.628906 L 25.171875 -50.113281 C 25.972656 -52.171875 27.117188 -55.261719 27.800781 -55.375 L 27.457031 -54.6875 C 27.6875 -55.03125 27.917969 -55.261719 28.144531 -55.375 C 29.402344 -56.175781 32.605469 -55.375 34.09375 -55.375 C 35.125 -55.375 36.382812 -55.261719 37.414062 -55.605469 C 38.097656 -55.832031 37.871094 -56.175781 38.671875 -56.40625 C 40.042969 -56.632812 41.761719 -55.71875 43.246094 -56.175781 C 44.621094 -56.519531 46.566406 -57.777344 46.449219 -59.378906 Z M 24.710938 -52.859375 C 19.5625 -41.988281 15.675781 -30.320312 11.554688 -18.992188 C 9.609375 -13.84375 7.78125 -8.464844 6.519531 -3.089844 L 5.949219 -0.914062 C 6.75 -5.035156 7.664062 -9.039062 8.808594 -13.042969 C 11.328125 -21.851562 14.53125 -30.546875 18.304688 -38.898438 C 24.710938 -53.199219 30.433594 -68.53125 39.585938 -81.460938 C 33.40625 -72.652344 29.289062 -62.582031 24.710938 -52.859375 Z M 32.265625 -64.183594 L 35.011719 -69.449219 C 34.4375 -69.332031 33.40625 -66.816406 32.265625 -64.183594 Z M 20.480469 -39.242188 C 19.679688 -37.070312 18.761719 -35.011719 17.847656 -32.949219 C 18.761719 -35.125 19.5625 -37.414062 20.59375 -39.699219 C 20.480469 -39.472656 20.480469 -39.359375 20.480469 -39.242188 Z M 30.777344 -60.867188 L 31.921875 -63.382812 C 31.578125 -62.46875 31.121094 -61.554688 30.777344 -60.867188 Z M 5.835938 11.210938 C 5.71875 11.210938 5.605469 11.097656 5.492188 10.984375 Z M 5.835938 11.210938 "/></g></g></g><g fill="#ffcf00" fill-opacity="1"><g transform="translate(98.975253, 192.97945)"><g><path d="M 46.910156 -27.800781 C 46.222656 -30.777344 43.476562 -26.773438 42.902344 -26.085938 L 36.613281 -17.621094 L 30.433594 -9.496094 L 27.117188 -5.261719 C 26.773438 -4.804688 24.253906 -1.601562 24.484375 -1.601562 C 24.710938 -1.832031 25.054688 -1.832031 25.398438 -2.171875 C 23.683594 -0.34375 17.390625 5.378906 16.246094 4.003906 C 15.332031 2.859375 17.847656 -1.945312 18.191406 -3.089844 C 19.449219 -6.40625 20.59375 -9.839844 21.96875 -13.042969 C 23.453125 -16.359375 25.171875 -19.679688 26.542969 -22.996094 C 27.917969 -26.542969 25.855469 -27.800781 22.539062 -28.601562 C 21.050781 -28.945312 19.222656 -28.945312 17.503906 -29.175781 C 17.503906 -29.058594 17.621094 -29.058594 17.621094 -29.058594 C 19.105469 -28.832031 21.28125 -28.71875 23.109375 -28.144531 C 20.363281 -28.945312 16.933594 -28.601562 14.757812 -29.175781 C 13.273438 -29.519531 12.355469 -29.519531 12.585938 -31.234375 C 12.8125 -33.523438 15.214844 -35.925781 16.015625 -38.097656 C 16.015625 -37.984375 15.214844 -35.925781 15.332031 -35.925781 C 15.902344 -35.695312 16.820312 -38.898438 16.820312 -39.359375 C 16.703125 -39.929688 15.332031 -41.644531 15.214844 -40.960938 L 15.445312 -40.617188 C 9.953125 -44.390625 3.433594 -36.613281 4.578125 -31.003906 C 4.804688 -30.203125 5.261719 -29.746094 5.605469 -28.832031 C 5.835938 -28.144531 5.605469 -27.34375 6.292969 -26.429688 C 8.695312 -23.453125 13.042969 -23.339844 16.476562 -24.027344 C 15.902344 -23.226562 9.839844 -10.410156 10.183594 -10.296875 L 9.382812 -7.4375 C 9.265625 -7.550781 9.726562 -8.464844 9.496094 -8.464844 C 8.695312 -8.582031 7.09375 -1.945312 6.980469 -1.371094 C 6.519531 1.371094 6.636719 3.777344 7.78125 6.292969 C 8.464844 7.894531 9.265625 9.265625 10.753906 10.183594 C 12.128906 11.097656 13.84375 11.554688 15.445312 11.210938 C 16.015625 10.984375 18.191406 9.496094 17.621094 9.609375 L 18.421875 9.265625 C 18.304688 9.382812 18.191406 9.496094 18.191406 9.609375 C 18.535156 9.726562 23.796875 5.492188 24.484375 5.035156 C 28.144531 1.945312 31.121094 -1.832031 33.867188 -5.605469 C 36.613281 -9.496094 39.472656 -13.386719 42.101562 -17.277344 C 43.363281 -19.105469 44.507812 -20.9375 45.421875 -22.882812 C 46.109375 -24.253906 47.25 -26.199219 46.910156 -27.800781 Z M 12.699219 -14.074219 C 13.5 -16.132812 14.414062 -18.078125 15.445312 -20.023438 C 15.675781 -20.363281 17.277344 -24.484375 18.078125 -24.710938 C 17.503906 -24.371094 15.101562 -18.761719 14.53125 -17.734375 L 12.355469 -12.699219 C 11.210938 -9.953125 9.953125 -7.09375 9.152344 -4.117188 C 9.953125 -7.550781 11.328125 -10.867188 12.699219 -14.074219 Z M 9.953125 7.894531 C 10.640625 8.808594 11.554688 9.726562 12.8125 10.183594 C 11.785156 9.839844 10.867188 9.265625 10.183594 8.582031 C 10.296875 8.582031 10.296875 8.695312 10.296875 8.808594 C 9.609375 7.894531 8.695312 5.949219 8.582031 5.605469 C 8.238281 4.234375 8.125 2.632812 8.238281 1.257812 C 8.238281 0.113281 8.351562 -0.800781 8.582031 -1.832031 L 8.582031 -1.714844 C 8.351562 -0.230469 8.238281 1.257812 8.351562 2.859375 L 8.351562 3.433594 C 8.238281 3.316406 8.238281 3.203125 8.238281 3.203125 C 8.238281 3.203125 8.238281 3.316406 8.351562 3.546875 L 8.351562 3.660156 L 8.808594 6.0625 L 8.464844 4.578125 C 8.695312 5.261719 9.265625 6.519531 9.839844 7.78125 L 9.726562 7.664062 C 9.726562 7.78125 9.839844 7.894531 9.953125 8.007812 Z M 13.15625 -29.859375 C 13.730469 -29.402344 14.757812 -29.289062 15.789062 -29.175781 C 14.875 -29.289062 14.074219 -29.519531 13.5 -29.976562 C 13.5 -29.976562 12.8125 -30.546875 12.699219 -30.777344 C 12.699219 -30.546875 12.929688 -29.976562 13.15625 -29.859375 Z M 25.171875 -20.9375 L 22.769531 -15.902344 L 25.171875 -21.050781 Z M 8.695312 -2.171875 C 8.695312 -2.058594 8.582031 -1.945312 8.582031 -1.832031 L 8.582031 -1.945312 C 8.582031 -2.058594 8.695312 -2.058594 8.695312 -2.171875 Z M 25.285156 -21.28125 L 25.285156 -21.167969 L 25.171875 -21.167969 Z M 25.285156 -21.28125 L 25.285156 -21.167969 L 25.171875 -21.167969 Z M 8.808594 -3.660156 C 8.808594 -3.777344 8.925781 -3.890625 8.925781 -4.117188 C 8.925781 -3.890625 8.808594 -3.777344 8.808594 -3.660156 Z M 9.265625 6.863281 C 9.265625 6.863281 9.382812 6.980469 9.382812 7.09375 C 9.382812 6.980469 9.265625 6.980469 9.265625 6.863281 Z M 12.8125 -31.003906 C 12.699219 -31.003906 12.699219 -30.890625 12.699219 -30.890625 Z M 12.8125 -31.003906 "/></g></g></g><g fill="#ffcf00" fill-opacity="1"><g transform="translate(137.528026, 192.97945)"><g><path d="M 58.234375 -27.574219 C 58.121094 -30.089844 56.0625 -27.917969 55.375 -27 C 53.886719 -24.828125 52.515625 -22.539062 51.140625 -20.363281 C 48.050781 -15.675781 44.964844 -10.984375 41.417969 -6.519531 C 29.632812 8.007812 37.871094 -17.847656 36.953125 -17.621094 C 36.496094 -17.503906 36.152344 -15.789062 36.039062 -15.445312 C 36.953125 -19.5625 38.671875 -24.484375 40.84375 -28.488281 C 42.101562 -31.003906 43.589844 -33.066406 41.300781 -35.8125 C 37.070312 -40.960938 32.148438 -36.269531 29.402344 -32.722656 C 28.257812 -37.070312 25.972656 -43.476562 20.363281 -43.476562 C 17.847656 -43.476562 16.359375 -42.21875 14.644531 -40.730469 C 13.613281 -40.042969 12.8125 -39.929688 11.898438 -39.128906 C 10.410156 -38.097656 9.382812 -36.496094 8.351562 -35.125 C 4.460938 -29.402344 1.714844 -22.195312 0.457031 -15.558594 C -0.113281 -12.355469 -0.34375 -8.808594 0.570312 -5.605469 C 1.144531 -3.777344 3.203125 0.34375 5.835938 0 C 5.949219 0 5.71875 -0.113281 5.378906 -0.34375 C 6.980469 0.113281 8.808594 -0.113281 10.183594 -1.03125 C 10.296875 -0.800781 8.925781 -0.230469 8.925781 -0.230469 C 10.183594 1.714844 19.5625 -9.609375 20.25 -10.640625 C 21.738281 -12.699219 22.769531 -14.875 24.140625 -17.046875 C 25.171875 -18.648438 26.773438 -20.707031 27.917969 -22.425781 C 27.800781 -21.625 27.800781 -20.59375 27.800781 -20.59375 C 25.742188 -14.074219 23.796875 -6.980469 26.542969 -0.230469 C 27.800781 3.203125 30.890625 6.40625 34.78125 5.71875 C 38.214844 5.148438 41.074219 1.832031 43.132812 -0.800781 C 45.648438 -3.777344 47.824219 -7.09375 49.996094 -10.527344 C 51.828125 -13.613281 53.542969 -16.703125 55.03125 -20.136719 C 55.945312 -22.308594 58.464844 -24.941406 58.234375 -27.574219 Z M 25.398438 -26.773438 C 24.828125 -25.972656 24.253906 -25.171875 23.796875 -24.371094 L 20.824219 -20.136719 C 18.878906 -17.277344 16.820312 -14.53125 14.644531 -11.898438 C 14.074219 -11.097656 11.328125 -7.550781 10.183594 -7.894531 C 8.464844 -8.464844 10.296875 -14.414062 10.527344 -15.332031 C 10.867188 -16.933594 16.933594 -34.550781 18.535156 -34.894531 C 16.476562 -35.011719 9.839844 -14.300781 9.496094 -12.585938 C 10.410156 -18.191406 12.472656 -23.683594 14.757812 -28.832031 C 16.015625 -31.464844 18.878906 -38.441406 22.652344 -38.441406 C 24.710938 -38.441406 25.171875 -34.207031 25.515625 -32.835938 C 25.398438 -33.066406 24.371094 -36.382812 24.253906 -36.269531 C 23.683594 -35.8125 25.972656 -29.519531 25.972656 -28.601562 C 25.972656 -27.6875 25.972656 -27.6875 25.398438 -26.773438 Z M 28.03125 -21.167969 C 28.03125 -21.167969 28.375 -22.769531 28.488281 -23.109375 L 29.058594 -23.910156 Z M 26.316406 -28.257812 L 26.316406 -29.402344 C 26.65625 -28.945312 26.65625 -28.601562 26.316406 -28.257812 Z M 26.316406 -28.257812 "/></g></g></g><g fill="#ffcf00" fill-opacity="1"><g transform="translate(187.4064, 192.97945)"><g><path d="M 55.832031 -27.34375 C 55.375 -33.066406 47.136719 -22.769531 46.679688 -22.425781 C 45.308594 -21.28125 44.046875 -20.25 42.445312 -19.449219 C 40.84375 -18.761719 39.359375 -17.160156 37.753906 -16.933594 C 36.839844 -16.703125 34.550781 -16.589844 33.636719 -17.046875 C 31.691406 -18.078125 33.75 -21.625 34.324219 -23.226562 C 34.4375 -23.453125 33.980469 -23.339844 34.207031 -24.027344 L 34.894531 -24.484375 L 36.953125 -26.65625 C 38.898438 -28.71875 41.53125 -29.632812 43.589844 -31.464844 C 44.277344 -32.035156 44.734375 -32.492188 44.964844 -33.40625 C 45.421875 -37.070312 40.273438 -37.183594 38.097656 -35.695312 C 34.667969 -33.636719 32.492188 -30.320312 30.089844 -27.574219 L 26.316406 -23.683594 C 24.828125 -21.96875 22.769531 -20.480469 21.625 -18.421875 C 21.167969 -17.734375 21.167969 -16.933594 20.480469 -16.132812 C 19.792969 -15.445312 18.992188 -14.757812 18.421875 -13.84375 C 17.046875 -12.128906 15.789062 -10.296875 14.53125 -8.464844 C 14.644531 -9.609375 13.730469 -18.078125 13.273438 -22.769531 C 13.273438 -21.394531 13.386719 -19.90625 13.386719 -19.679688 L 13.15625 -23.109375 L 13.15625 -23.226562 C 12.929688 -25.171875 12.699219 -27.230469 12.128906 -29.175781 L 12.472656 -28.375 C 12.585938 -28.257812 12.472656 -29.859375 12.355469 -30.203125 C 12.242188 -30.546875 11.671875 -30.433594 11.785156 -30.089844 C 11.441406 -30.777344 12.011719 -31.003906 11.328125 -31.804688 C 10.410156 -33.066406 8.582031 -32.949219 7.324219 -32.492188 C 6.292969 -32.148438 5.378906 -31.234375 4.917969 -30.890625 C 3.777344 -30.203125 2.632812 -29.976562 2.171875 -28.257812 C 1.832031 -26.886719 3.890625 -20.363281 3.546875 -19.792969 L 3.660156 -19.90625 C 3.777344 -19.449219 3.777344 -18.992188 3.777344 -18.648438 C 3.660156 -18.648438 3.660156 -18.878906 3.660156 -18.992188 C 3.660156 -18.992188 3.089844 -17.621094 3.089844 -17.390625 C 2.746094 -15.789062 3.089844 -14.875 3.203125 -13.386719 C 3.433594 -12.128906 3.203125 -11.097656 3.203125 -9.839844 C 3.203125 -8.695312 3.433594 -8.351562 3.546875 -8.007812 C 3.433594 -8.238281 3.660156 -6.179688 3.660156 -6.179688 C 3.546875 -5.035156 2.746094 -3.660156 2.746094 -2.289062 C 2.515625 1.371094 2.289062 6.292969 5.378906 8.582031 C 7.550781 10.183594 10.640625 10.640625 12.355469 8.007812 C 13.042969 6.863281 13.273438 5.492188 13.386719 4.117188 C 14.074219 0.570312 15.332031 -1.945312 17.277344 -5.035156 C 20.707031 -10.640625 25.515625 -14.757812 29.289062 -20.023438 C 28.945312 -8.582031 43.363281 -12.472656 48.28125 -18.078125 C 49.082031 -18.878906 49.65625 -19.90625 50.457031 -20.707031 C 52.058594 -22.082031 53.542969 -23.570312 54.804688 -25.285156 C 55.261719 -25.855469 56.0625 -26.542969 55.832031 -27.34375 Z M 12.472656 -22.195312 C 12.355469 -19.449219 12.242188 -16.703125 11.898438 -14.074219 C 12.011719 -16.246094 11.671875 -18.761719 11.785156 -21.050781 C 11.898438 -22.996094 11.898438 -24.710938 11.671875 -26.65625 C 11.554688 -27.574219 11.441406 -28.488281 11.097656 -29.289062 C 10.984375 -29.746094 10.296875 -30.433594 10.296875 -30.890625 C 10.296875 -31.234375 11.328125 -29.746094 11.441406 -29.632812 C 11.785156 -29.058594 11.898438 -28.257812 12.011719 -27.574219 C 12.355469 -25.855469 12.585938 -24.027344 12.472656 -22.195312 Z M 11.785156 -12.242188 C 11.671875 -12.242188 11.554688 -12.355469 11.671875 -12.699219 C 11.898438 -12.699219 11.898438 -12.585938 11.785156 -12.242188 Z M 13.5 -15.101562 L 13.5 -16.820312 C 13.613281 -16.246094 13.613281 -15.675781 13.5 -15.101562 Z M 13.15625 -24.253906 L 13.15625 -25.972656 C 13.042969 -25.972656 13.15625 -25.285156 13.15625 -24.253906 Z M 13.273438 -22.882812 C 13.15625 -22.996094 13.15625 -22.996094 13.15625 -23.109375 L 13.15625 -23.339844 C 13.15625 -23.109375 13.273438 -22.996094 13.273438 -22.882812 Z M 13.273438 -22.882812 "/></g></g></g><g fill="#ffcf00" fill-opacity="1"><g transform="translate(234.882378, 192.97945)"><g><path d="M 43.820312 -28.257812 C 43.820312 -28.144531 43.820312 -28.144531 43.703125 -28.257812 L 43.703125 -28.375 C 41.875 -31.464844 39.472656 -27.230469 38.441406 -25.742188 C 36.496094 -23.109375 34.667969 -20.59375 32.605469 -18.191406 C 30.890625 -16.132812 29.058594 -14.074219 27.6875 -11.898438 C 27.6875 -11.671875 27.457031 -11.097656 27.457031 -11.097656 C 27 -10.410156 26.316406 -9.839844 25.742188 -9.152344 C 24.710938 -8.125 23.683594 -6.980469 22.539062 -5.949219 C 20.824219 -4.347656 11.210938 4.691406 9.953125 -1.144531 C 9.265625 -4.003906 10.183594 -7.550781 10.753906 -10.296875 C 11.097656 -11.785156 11.441406 -13.15625 11.671875 -14.644531 C 11.898438 -15.789062 11.554688 -16.933594 12.128906 -18.078125 C 12.472656 -18.761719 12.585938 -18.648438 13.386719 -18.878906 L 15.332031 -19.5625 C 16.589844 -20.023438 17.847656 -20.480469 18.992188 -21.167969 C 20.707031 -22.195312 22.308594 -23.453125 23.796875 -24.710938 C 27.34375 -27.6875 31.121094 -31.234375 32.605469 -35.695312 C 33.40625 -38.214844 33.523438 -40.960938 31.921875 -43.132812 C 30.433594 -45.078125 27.917969 -46.109375 25.628906 -46.566406 C 19.449219 -47.710938 14.757812 -44.164062 11.210938 -39.472656 C 6.863281 -34.09375 3.777344 -27.457031 2.289062 -20.707031 C 1.488281 -17.390625 1.03125 -14.074219 0.457031 -10.640625 C -0.113281 -7.207031 -0.457031 -4.003906 1.371094 -0.800781 C 1.257812 -1.945312 1.03125 -2.976562 1.03125 -4.003906 C 1.03125 -4.578125 1.257812 -5.148438 1.257812 -5.605469 C 1.257812 -5.835938 1.03125 -6.519531 1.03125 -6.863281 C 1.03125 -7.894531 1.257812 -8.695312 1.488281 -9.726562 C 1.601562 -10.753906 1.488281 -11.785156 1.601562 -12.8125 C 1.714844 -13.957031 2.171875 -14.875 2.632812 -15.902344 C 2.976562 -16.820312 3.089844 -17.621094 3.433594 -18.535156 C 3.777344 -19.335938 4.003906 -20.25 4.347656 -21.167969 C 4.460938 -21.738281 5.035156 -22.425781 5.378906 -23.109375 C 5.035156 -22.082031 4.347656 -21.167969 4.117188 -20.25 C 3.777344 -18.878906 4.003906 -17.390625 3.890625 -16.015625 C 3.660156 -14.53125 3.203125 -13.042969 2.976562 -11.441406 C 2.746094 -9.953125 2.058594 -8.582031 1.832031 -7.09375 C 1.601562 -5.71875 1.144531 -4.691406 1.257812 -3.316406 C 1.257812 -2.515625 1.371094 -1.714844 1.488281 -1.03125 C 1.601562 -0.113281 2.171875 0.457031 2.746094 1.144531 C 4.691406 3.433594 7.324219 5.261719 10.296875 6.0625 C 12.355469 6.636719 14.1875 6.519531 16.132812 5.492188 C 18.878906 4.003906 21.28125 1.714844 23.339844 -0.457031 C 25.285156 -2.632812 26.773438 -5.035156 28.488281 -7.324219 C 30.089844 -9.382812 32.035156 -11.328125 33.636719 -13.386719 L 39.816406 -21.394531 L 43.363281 -26.085938 C 43.933594 -26.773438 44.277344 -27.34375 43.820312 -28.257812 Z M 15.445312 -27 C 15.558594 -27.230469 15.558594 -27.34375 15.558594 -27.34375 C 17.277344 -31.003906 18.535156 -34.894531 20.9375 -38.441406 L 22.996094 -41.1875 C 23.453125 -41.761719 24.253906 -42.789062 25.054688 -43.019531 C 26.773438 -43.363281 27.230469 -40.386719 27.117188 -39.242188 L 26.65625 -36.839844 C 26.542969 -36.152344 26.773438 -35.695312 26.65625 -35.125 C 26.429688 -34.4375 25.855469 -34.09375 25.515625 -33.523438 L 23.570312 -31.003906 C 20.9375 -27.917969 17.621094 -25.285156 13.957031 -23.339844 C 14.53125 -24.597656 14.875 -25.855469 15.445312 -27 Z M 15.445312 -27 "/></g></g></g><g fill="#ffcf00" fill-opacity="1"><g transform="translate(270.460756, 192.97945)"><g><path d="M 45.765625 -29.175781 C 44.164062 -27.457031 43.132812 -24.597656 41.875 -22.539062 C 39.929688 -19.222656 37.984375 -16.015625 35.925781 -12.8125 C 32.035156 -6.636719 28.144531 -0.34375 23.453125 5.261719 C 21.507812 7.664062 17.390625 13.5 13.5 13.042969 C 10.640625 12.585938 10.640625 7.664062 10.640625 5.492188 C 10.640625 3.660156 10.753906 1.832031 10.984375 0.113281 C 11.097656 -0.914062 12.011719 -4.347656 11.441406 -5.261719 L 10.527344 -1.832031 C 10.640625 -3.203125 10.867188 -4.691406 11.210938 -6.0625 C 11.097656 -6.292969 12.128906 -9.496094 12.355469 -10.527344 C 12.929688 -12.8125 13.5 -15.101562 14.1875 -17.390625 C 14.757812 -19.679688 15.332031 -21.851562 16.015625 -24.027344 C 16.589844 -26.085938 17.390625 -27.117188 18.648438 -28.71875 C 23.796875 -35.125 28.488281 -42.101562 32.835938 -49.082031 C 34.4375 -51.714844 35.46875 -54.003906 37.414062 -56.175781 C 40.273438 -59.152344 42.21875 -63.613281 44.046875 -67.273438 C 47.136719 -73.222656 51.257812 -81.460938 50.570312 -88.441406 L 50.570312 -89.011719 L 50.457031 -89.125 C 49.769531 -93.589844 45.648438 -98.851562 40.617188 -97.25 C 37.984375 -96.449219 36.039062 -93.703125 34.4375 -91.757812 L 31.804688 -88.210938 C 31.234375 -87.523438 30.433594 -85.808594 29.859375 -84.894531 L 29.976562 -85.007812 L 26.316406 -78.714844 L 27.230469 -80.660156 C 26.65625 -80.773438 24.140625 -75.855469 23.796875 -75.28125 C 22.539062 -73.109375 21.394531 -70.933594 20.363281 -68.761719 C 18.078125 -64.183594 15.789062 -59.492188 14.300781 -54.574219 C 12.699219 -49.65625 10.867188 -44.847656 9.152344 -39.929688 C 8.238281 -37.296875 7.324219 -34.550781 6.519531 -31.921875 C 5.835938 -29.746094 4.234375 -26.199219 4.578125 -23.910156 L 4.917969 -23.910156 C 4.578125 -23.109375 4.347656 -22.308594 4.117188 -21.507812 C 4.234375 -22.195312 4.234375 -22.996094 4.347656 -23.226562 C 3.777344 -22.425781 3.890625 -19.679688 3.777344 -19.449219 C 2.289062 -13.273438 0.570312 -7.09375 0.113281 -0.6875 C -0.230469 5.378906 -0.230469 13.386719 4.578125 17.847656 C 9.953125 22.769531 16.132812 19.449219 20.59375 15.214844 C 25.855469 10.066406 30.320312 4.003906 34.4375 -1.945312 C 38.214844 -7.4375 41.1875 -13.273438 44.621094 -18.761719 C 45.992188 -21.050781 47.480469 -23.339844 48.167969 -25.855469 C 48.625 -27.6875 48.394531 -31.921875 45.765625 -29.175781 Z M 31.464844 -70.132812 C 33.75 -75.625 36.039062 -81.230469 39.242188 -86.378906 C 40.042969 -87.640625 45.191406 -94.503906 44.964844 -88.441406 L 44.964844 -88.324219 C 44.734375 -81.917969 40.617188 -75.167969 37.871094 -69.675781 L 33.066406 -60.753906 C 31.464844 -58.007812 28.71875 -54.574219 27.800781 -51.597656 C 28.488281 -53.429688 30.546875 -56.0625 31.578125 -57.777344 C 33.292969 -60.636719 34.78125 -63.5 36.382812 -66.359375 C 39.015625 -71.390625 41.875 -76.65625 43.820312 -82.148438 C 38.671875 -66.816406 29.058594 -52.515625 20.59375 -38.898438 C 23.910156 -48.96875 27.230469 -59.953125 31.464844 -70.132812 Z M 27.800781 -78.144531 C 28.945312 -80.316406 31.003906 -82.148438 32.148438 -84.207031 C 29.746094 -79.402344 26.773438 -75.054688 24.253906 -70.476562 C 24.253906 -70.589844 24.253906 -70.820312 24.371094 -70.933594 C 25.398438 -73.453125 26.542969 -75.738281 27.800781 -78.144531 Z M 6.179688 -18.992188 C 6.0625 -18.761719 6.0625 -18.648438 6.0625 -18.648438 C 4.691406 -15.445312 4.578125 -11.097656 3.890625 -7.664062 C 3.777344 -6.863281 3.546875 -6.179688 3.546875 -5.378906 L 3.546875 -5.71875 L 3.203125 -2.058594 C 3.433594 -6.179688 3.890625 -10.410156 4.691406 -14.414062 L 4.691406 -14.300781 C 5.035156 -16.933594 5.605469 -19.335938 6.0625 -19.335938 C 6.292969 -19.449219 6.292969 -19.105469 6.179688 -18.992188 Z M 6.179688 -18.992188 "/></g></g></g></svg>