<svg xmlns="http://www.w3.org/2000/svg" xmlns:xlink="http://www.w3.org/1999/xlink" width="500" zoomAndPan="magnify" viewBox="0 0 375 374.999991" height="500" preserveAspectRatio="xMidYMid meet" version="1.0"><defs><g/></defs><g fill="#dd7210" fill-opacity="1"><g transform="translate(168.799861, 293.51139)"><g><path d="M 23.695312 -211.261719 C 26.800781 -212.308594 30.972656 -213.839844 35.5625 -215.289062 C 38.296875 -216.230469 42.890625 -217.679688 45.8125 -218.675781 C 52.902344 -221.203125 75.351562 -228.109375 78.933594 -228.882812 C 93.144531 -232.347656 112.859375 -236.117188 114.496094 -235.964844 C 115.34375 -235.796875 115.070312 -235.324219 113.367188 -234.261719 C 110.359375 -232.84375 106.410156 -229.777344 106.5625 -229.21875 C 106.664062 -228.847656 100.347656 -224.9375 96.464844 -223.082031 C 95.027344 -222.492188 95.230469 -221.75 96.53125 -222.101562 C 97.089844 -222.253906 97.882812 -222.269531 98.304688 -222.1875 C 98.777344 -221.914062 100.125 -222.082031 102.167969 -222.640625 C 103.839844 -223.09375 105.511719 -223.546875 105.746094 -223.414062 C 106.539062 -223.429688 115.285156 -227.203125 116.992188 -228.265625 C 117.632812 -228.839844 118.5625 -229.09375 118.746094 -229.144531 C 119.910156 -229.261719 123.832031 -233.917969 123.847656 -235.316406 C 123.898438 -237.324219 123.308594 -238.761719 122.414062 -239.117188 C 121.808594 -239.148438 121.421875 -239.84375 121.21875 -240.585938 C 121.015625 -241.328125 120.390625 -242.15625 120.105469 -242.476562 C 118.875 -243.335938 113.914062 -243.980469 109.8125 -243.664062 C 105.894531 -243.394531 105.152344 -243.195312 85.285156 -237.789062 C 69.871094 -233.597656 62.679688 -231.441406 56.46875 -229.351562 C 50.996094 -227.464844 37.375 -222.5625 25.558594 -218.351562 C 27.433594 -224.644531 29.191406 -229.910156 30.394531 -232.828125 C 32.488281 -237.585938 34.636719 -244.351562 34.285156 -245.652344 C 34.316406 -246.261719 34.671875 -247.15625 35.078125 -247.863281 C 36.988281 -250.378906 33.648438 -256.050781 30.578125 -255.613281 C 29.648438 -255.359375 28.804688 -255.53125 28.890625 -255.953125 C 28.636719 -256.878906 23.238281 -258.402344 20.773438 -257.933594 C 18.441406 -257.695312 16.347656 -255.132812 16.53125 -252.988281 C 16.683594 -252.433594 16.125 -250.085938 15.515625 -247.925781 C 14.367188 -244.820312 8.582031 -222.109375 5.90625 -211.410156 L 3.78125 -210.429688 C 2.292969 -210.027344 0.117188 -209.234375 -1.320312 -208.644531 C -2.804688 -208.242188 -7.53125 -206.558594 -11.835938 -204.789062 C -16.191406 -203.203125 -26.757812 -199.53125 -35.285156 -196.414062 C -43.808594 -193.296875 -53.265625 -189.925781 -56.132812 -188.746094 C -71.699219 -182.917969 -88.664062 -177.105469 -85.710938 -178.707031 C -85.019531 -179.09375 -83.953125 -179.582031 -83.027344 -179.835938 C -82.285156 -180.039062 -81.589844 -180.425781 -81.640625 -180.613281 C -81.691406 -180.796875 -82.621094 -180.546875 -83.921875 -180.191406 C -85.167969 -179.652344 -91.382812 -177.5625 -97.542969 -175.289062 C -103.707031 -173.015625 -110.105469 -170.875 -111.539062 -170.285156 C -113.902344 -169.441406 -114.273438 -169.339844 -115.269531 -170.066406 C -117.632812 -171.417969 -121.582031 -170.542969 -123.777344 -168.351562 C -125.144531 -166.78125 -125.332031 -166.730469 -129.785156 -165.519531 C -134.429688 -164.257812 -134.429688 -164.257812 -134.546875 -163.226562 C -134.582031 -162.621094 -134.800781 -161.960938 -134.886719 -161.539062 C -135.664062 -160.730469 -134.804688 -157.574219 -133.875 -157.828125 C -133.554688 -158.113281 -133.269531 -157.792969 -133.117188 -157.234375 C -132.8125 -156.121094 -130.214844 -154.632812 -128.816406 -154.617188 C -127.277344 -154.835938 -113.554688 -159.367188 -108.507812 -161.335938 C -96.46875 -166.207031 -81.460938 -171.886719 -55.9375 -181.421875 C -25.175781 -192.980469 -25.363281 -192.929688 -25.042969 -193.21875 C -24.027344 -193.890625 2.558594 -203.917969 2.660156 -203.546875 C 2.660156 -203.546875 3.21875 -203.699219 4.332031 -204 C -7.988281 -149.59375 -13.332031 -105.460938 -13.515625 -57.746094 C -13.683594 -36.363281 -13.015625 -24.378906 -10.644531 -9.070312 C -7.183594 13.917969 -3.121094 25.179688 3.914062 31.242188 C 6.242188 33.203125 8.417969 34.605469 8.839844 34.691406 C 9.210938 34.589844 10.476562 34.84375 11.84375 35.46875 C 12.972656 35.957031 14.949219 36.617188 16.261719 37.058594 C 17.714844 37.261719 19.773438 37.5 20.9375 37.382812 C 23.824219 36.996094 27.320312 34.449219 27.050781 32.726562 C 26.898438 32.167969 27.203125 31.089844 27.425781 30.429688 C 28.152344 29.4375 23.785156 21.449219 22.484375 21.804688 C 22.0625 21.71875 20.457031 23.152344 18.953125 24.957031 C 17.453125 26.761719 15.847656 28.195312 15.660156 28.246094 C 14.683594 28.3125 11.917969 23.28125 10.433594 19.296875 C 5.71875 5.625 2.039062 -21.097656 2.589844 -39.59375 C 2.625 -42.394531 2.628906 -48.976562 2.667969 -53.972656 C 2.699219 -77.316406 5.917969 -120.472656 8.609375 -132.570312 C 9.589844 -137.027344 11.503906 -148.316406 12.453125 -156.550781 C 13.945312 -167.925781 14.878906 -172.566406 21.683594 -202.539062 C 22.273438 -205.492188 23.054688 -208.496094 23.695312 -211.261719 Z M 94.582031 -237.328125 C 98.652344 -239.230469 109.773438 -240.863281 115.109375 -240.320312 C 117.117188 -240.265625 116.054688 -239.777344 113.859375 -239.78125 C 111.851562 -239.832031 104.59375 -238.65625 101.808594 -237.898438 C 100.507812 -237.542969 99.15625 -237.375 98.921875 -237.511719 C 98.683594 -237.644531 97.335938 -237.476562 95.898438 -236.886719 C 93.113281 -236.128906 92.269531 -236.300781 94.582031 -237.328125 Z M 88.21875 -235.796875 C 90.074219 -236.300781 91.425781 -236.46875 91.242188 -236.417969 C 90.546875 -236.03125 90.546875 -236.03125 91.390625 -235.859375 C 91.8125 -235.777344 91.8125 -235.777344 91.070312 -235.574219 C 90.699219 -235.472656 90.144531 -235.320312 90.09375 -235.507812 C 90.042969 -235.695312 89.0625 -235.625 87.761719 -235.273438 C 86.277344 -234.867188 85.164062 -234.566406 84.925781 -234.699219 C 84.691406 -234.835938 86.175781 -235.238281 88.21875 -235.796875 Z M 65.800781 -229.496094 C 67.234375 -230.085938 83.339844 -234.667969 83.070312 -234.195312 C 82.882812 -234.144531 79.777344 -233.101562 76.113281 -231.90625 C 72.402344 -230.894531 69.109375 -229.800781 68.738281 -229.699219 C 68.601562 -229.460938 67.4375 -229.34375 66.511719 -229.09375 C 64.601562 -228.773438 64.550781 -228.957031 65.800781 -229.496094 Z M 40.445312 -220.804688 C 40.902344 -221.328125 41.457031 -221.480469 46.234375 -222.976562 C 48.226562 -223.71875 51.890625 -224.914062 54.253906 -225.757812 C 59.859375 -227.882812 63.574219 -228.890625 63.722656 -228.335938 C 63.773438 -228.148438 63.402344 -228.046875 62.847656 -227.894531 C 60.988281 -227.390625 54.828125 -225.117188 54.320312 -224.777344 C 53.359375 -223.917969 51.179688 -223.128906 48.480469 -222.792969 C 46.894531 -222.757812 45.222656 -222.304688 44.851562 -222.203125 C 44.023438 -221.578125 44.210938 -221.628906 45.558594 -221.796875 C 46.910156 -221.964844 46.910156 -221.964844 45.054688 -221.460938 C 43.9375 -221.15625 43.144531 -221.140625 43.28125 -221.375 C 43.417969 -221.613281 42.859375 -221.460938 41.980469 -221.023438 C 41.050781 -220.769531 40.308594 -220.570312 40.445312 -220.804688 Z M -34.949219 -193.714844 C -37.632812 -192.585938 -42.917969 -190.746094 -47.085938 -189.214844 C -50.886719 -187.78125 -56.863281 -185.558594 -60.101562 -184.277344 C -69.183594 -181.007812 -72.292969 -179.964844 -71.972656 -180.25 C -71.835938 -180.488281 -69.101562 -181.429688 -65.859375 -182.710938 C -62.617188 -183.992188 -57.011719 -186.117188 -53.402344 -187.496094 C -46.917969 -190.058594 -34.542969 -194.421875 -30.878906 -195.617188 C -29.765625 -195.921875 -28.703125 -196.410156 -28.382812 -196.695312 C -28.246094 -196.933594 -27.875 -197.035156 -27.773438 -196.664062 C -27.671875 -196.289062 -28.550781 -195.851562 -34.949219 -193.714844 Z M -25.628906 -196.847656 C -25.816406 -196.796875 -26.050781 -196.929688 -26.101562 -197.117188 C -26.152344 -197.300781 -26.019531 -197.539062 -25.832031 -197.589844 C -25.460938 -197.691406 -25.226562 -197.554688 -25.175781 -197.371094 C -25.125 -197.183594 -25.257812 -196.949219 -25.628906 -196.847656 Z M -23.316406 -197.875 C -23.875 -197.722656 -24.109375 -197.859375 -23.976562 -198.09375 C -23.839844 -198.332031 -23.519531 -198.617188 -23.148438 -198.71875 C -22.960938 -198.769531 -22.726562 -198.632812 -22.675781 -198.449219 C -22.625 -198.261719 -22.945312 -197.976562 -23.316406 -197.875 Z M -15.90625 -200.6875 C -16.734375 -200.066406 -17.289062 -199.914062 -17.390625 -200.285156 C -17.441406 -200.46875 -16.9375 -200.808594 -16.378906 -200.957031 C -15.449219 -201.210938 -15.214844 -201.078125 -15.90625 -200.6875 Z M -6.402344 -203.871094 C -8.207031 -203.179688 -10.941406 -202.238281 -12.429688 -201.832031 C -13.863281 -201.246094 -14.976562 -200.941406 -14.84375 -201.175781 C -14.523438 -201.464844 -3.074219 -205.574219 -3.027344 -205.390625 C -2.976562 -205.203125 -4.410156 -204.613281 -6.402344 -203.871094 Z M 0.488281 1.0625 C 0.402344 1.484375 1.027344 4.507812 1.886719 7.664062 C 2.980469 10.957031 3.601562 13.976562 3.417969 14.027344 C 3.011719 14.738281 2 11.023438 0.402344 3.679688 C -0.539062 -1.25 -0.757812 -2.785156 -0.167969 -1.351562 C 0.457031 -0.523438 0.757812 0.589844 0.488281 1.0625 Z M -1.816406 -11.074219 C -1.851562 -10.464844 -2.085938 -10.601562 -2.289062 -11.34375 C -2.355469 -12.324219 -2.269531 -12.746094 -1.984375 -12.421875 C -1.746094 -12.289062 -1.78125 -11.679688 -1.816406 -11.074219 Z M 5.433594 -155.238281 C 5.75 -153.332031 5.140625 -146.785156 4.582031 -146.632812 C 4.347656 -146.765625 4.042969 -145.6875 4.109375 -144.707031 C 3.992188 -143.679688 3.636719 -142.785156 3.265625 -142.683594 C 2.890625 -142.582031 2.976562 -140.808594 3.394531 -138.53125 C 3.632812 -136.203125 3.578125 -134.195312 3.125 -133.671875 C 2.074219 -132.390625 1.566406 -127.664062 2.15625 -126.230469 C 2.542969 -125.535156 2.59375 -125.351562 2.121094 -125.621094 C 1.648438 -125.890625 1.445312 -124.441406 1.496094 -122.058594 C 1.679688 -119.917969 1.441406 -117.859375 1.308594 -117.621094 C 1.035156 -117.148438 0.832031 -115.699219 1.101562 -113.976562 C 1.183594 -112.203125 1 -109.957031 0.695312 -108.878906 C 0 -106.296875 -0.527344 -100.171875 -0.785156 -92.324219 C -0.90625 -89.097656 -1.160156 -85.640625 -1.515625 -84.746094 C -1.871094 -83.851562 -1.972656 -82.027344 -1.855469 -80.863281 C -1.203125 -74.0625 -1.355469 -70.230469 -2.25 -70.585938 C -2.671875 -70.667969 -3.128906 -70.148438 -3.296875 -69.304688 C -3.28125 -68.507812 -3.078125 -67.765625 -2.65625 -67.683594 C -2.421875 -67.546875 -2.203125 -66.011719 -2.355469 -64.375 C -2.734375 -51.109375 -2.992188 -47.648438 -2.671875 -45.742188 C -2.503906 -44.390625 -2.554688 -42.382812 -2.996094 -41.066406 C -3.605469 -38.90625 -3.503906 -38.535156 -2.457031 -37.621094 C -1.410156 -36.710938 -1.359375 -36.523438 -2.273438 -35.480469 C -3.050781 -34.667969 -3.050781 -32.476562 -2.632812 -25.808594 C -1.726562 -15.882812 -2.101562 -11.394531 -3.078125 -17.910156 C -3.546875 -20.375 -3.917969 -24.660156 -3.933594 -27.648438 C -4.132812 -30.585938 -4.382812 -35.902344 -4.597656 -39.632812 C -4.765625 -43.175781 -4.777344 -50.550781 -4.605469 -55.785156 C -4.484375 -61.203125 -4.34375 -68.019531 -4.175781 -71.058594 C -4.269531 -82.402344 -3.464844 -95.582031 -1.921875 -108.964844 C -1.125 -115.5625 -0.566406 -117.910156 0.175781 -118.113281 C 1.15625 -118.179688 1.105469 -118.363281 0.160156 -118.90625 C -0.734375 -119.261719 -0.582031 -120.898438 0.285156 -128.710938 C 2.082031 -143.359375 5.046875 -158.125 5.433594 -155.238281 Z M 8.289062 -188.722656 C 5.851562 -177.890625 0.464844 -147.109375 -0.789062 -137.792969 C -2.453125 -123.378906 -4.863281 -99.988281 -4.746094 -98.824219 C -4.730469 -98.03125 -5.292969 -89.101562 -5.871094 -83.160156 C -5.941406 -81.945312 -5.992188 -79.9375 -6.007812 -78.535156 C -6.078125 -77.320312 -6.097656 -73.726562 -6.082031 -70.738281 C -6.304688 -67.886719 -6.476562 -62.65625 -6.410156 -59.480469 C -6.53125 -56.257812 -6.617188 -51.449219 -6.839844 -48.597656 C -6.875 -45.792969 -6.925781 -41.589844 -6.691406 -39.261719 C -6.644531 -36.882812 -6.34375 -31.378906 -6.296875 -26.804688 C -6.097656 -21.675781 -5.207031 -12.542969 -3.777344 -2.164062 C -1.425781 14.546875 -1.195312 19.070312 -3.179688 11.035156 C -3.835938 8.621094 -4.980469 5.144531 -5.671875 3.339844 C -7.492188 -1.152344 -11.222656 -25.863281 -9.824219 -25.847656 C -8.980469 -25.675781 -8.894531 -26.097656 -10.144531 -27.753906 C -11.003906 -28.714844 -11.136719 -30.675781 -11.421875 -35.382812 C -11.402344 -38.976562 -11.28125 -42.203125 -10.960938 -42.488281 C -10.371094 -43.246094 -10.046875 -45.730469 -10.789062 -45.527344 C -11.769531 -45.460938 -11.75 -46.859375 -11.574219 -60.867188 C -11.484375 -67.875 -11.175781 -73.339844 -10.804688 -73.441406 C -10.382812 -73.359375 -9.636719 -80.140625 -9.242188 -88.226562 C -8.203125 -105.660156 -5.453125 -130.738281 -4.234375 -135.058594 C -3.710938 -136.796875 -3.320312 -138.300781 -3.421875 -138.671875 C -3.523438 -139.042969 -3.152344 -141.335938 -2.457031 -143.917969 C -0.460938 -153.4375 0.507812 -158.6875 0.203125 -159.800781 C 0.0507812 -160.355469 0.136719 -160.777344 0.320312 -160.828125 C 0.691406 -160.929688 0.914062 -161.589844 0.660156 -162.515625 C 0.5625 -165.082031 5.25 -186.699219 6.601562 -189.0625 C 7.277344 -190.242188 8.171875 -192.082031 8.476562 -193.164062 C 9.675781 -196.082031 9.609375 -194.867188 8.289062 -188.722656 Z M 8.289062 -188.722656 "/></g></g></g><g fill="#dd7210" fill-opacity="1"><g transform="translate(218.048423, 279.06818)"><g><path d="M 17.234375 -153.667969 C 19.496094 -154.425781 22.527344 -155.542969 25.867188 -156.597656 C 27.859375 -157.28125 31.199219 -158.335938 33.320312 -159.058594 C 38.480469 -160.898438 54.808594 -165.921875 57.414062 -166.484375 C 67.75 -169.007812 82.09375 -171.746094 83.285156 -171.636719 C 83.898438 -171.511719 83.699219 -171.167969 82.460938 -170.394531 C 80.273438 -169.367188 77.398438 -167.132812 77.511719 -166.730469 C 77.582031 -166.457031 72.992188 -163.613281 70.164062 -162.265625 C 69.121094 -161.835938 69.269531 -161.296875 70.214844 -161.550781 C 70.621094 -161.664062 71.195312 -161.675781 71.503906 -161.613281 C 71.847656 -161.417969 72.828125 -161.539062 74.316406 -161.941406 C 75.53125 -162.273438 76.746094 -162.605469 76.917969 -162.507812 C 77.496094 -162.519531 83.855469 -165.265625 85.097656 -166.035156 C 85.5625 -166.453125 86.238281 -166.636719 86.375 -166.675781 C 87.222656 -166.757812 90.070312 -170.144531 90.085938 -171.164062 C 90.121094 -172.625 89.691406 -173.667969 89.042969 -173.925781 C 88.601562 -173.953125 88.320312 -174.457031 88.171875 -174.996094 C 88.023438 -175.535156 87.570312 -176.136719 87.363281 -176.371094 C 86.464844 -177 82.859375 -177.46875 79.875 -177.234375 C 77.027344 -177.042969 76.484375 -176.894531 62.035156 -172.960938 C 50.824219 -169.914062 45.59375 -168.34375 41.074219 -166.824219 C 37.09375 -165.453125 27.183594 -161.886719 18.589844 -158.824219 C 19.957031 -163.402344 21.234375 -167.230469 22.109375 -169.355469 C 23.632812 -172.816406 25.195312 -177.738281 24.9375 -178.683594 C 24.960938 -179.125 25.21875 -179.773438 25.515625 -180.289062 C 26.902344 -182.117188 24.476562 -186.246094 22.242188 -185.925781 C 21.566406 -185.742188 20.953125 -185.867188 21.011719 -186.175781 C 20.828125 -186.847656 16.902344 -187.957031 15.109375 -187.613281 C 13.414062 -187.441406 11.890625 -185.578125 12.027344 -184.019531 C 12.136719 -183.613281 11.730469 -181.90625 11.285156 -180.335938 C 10.449219 -178.078125 6.242188 -161.554688 4.296875 -153.773438 L 2.75 -153.0625 C 1.667969 -152.769531 0.0859375 -152.191406 -0.960938 -151.765625 C -2.039062 -151.46875 -5.476562 -150.246094 -8.609375 -148.957031 C -11.777344 -147.804688 -19.464844 -145.132812 -25.664062 -142.867188 C -31.867188 -140.601562 -38.742188 -138.148438 -40.832031 -137.289062 C -52.152344 -133.050781 -64.492188 -128.824219 -62.34375 -129.988281 C -61.839844 -130.269531 -61.066406 -130.625 -60.390625 -130.808594 C -59.851562 -130.957031 -59.347656 -131.238281 -59.382812 -131.375 C -59.421875 -131.507812 -60.097656 -131.324219 -61.042969 -131.066406 C -61.949219 -130.675781 -66.46875 -129.15625 -70.953125 -127.5 C -75.433594 -125.847656 -80.085938 -124.289062 -81.132812 -123.863281 C -82.851562 -123.25 -83.121094 -123.175781 -83.84375 -123.703125 C -85.5625 -124.6875 -88.433594 -124.050781 -90.03125 -122.457031 C -91.027344 -121.3125 -91.164062 -121.277344 -94.40625 -120.394531 C -97.78125 -119.476562 -97.78125 -119.476562 -97.867188 -118.726562 C -97.890625 -118.285156 -98.050781 -117.808594 -98.113281 -117.5 C -98.679688 -116.910156 -98.054688 -114.617188 -97.378906 -114.800781 C -97.144531 -115.007812 -96.9375 -114.773438 -96.828125 -114.371094 C -96.605469 -113.558594 -94.714844 -112.476562 -93.699219 -112.464844 C -92.578125 -112.625 -82.597656 -115.917969 -78.925781 -117.351562 C -70.171875 -120.894531 -59.253906 -125.027344 -40.6875 -131.960938 C -18.3125 -140.371094 -18.449219 -140.332031 -18.214844 -140.542969 C -17.476562 -141.03125 1.863281 -148.324219 1.9375 -148.054688 C 1.9375 -148.054688 2.339844 -148.164062 3.152344 -148.386719 C -5.8125 -108.8125 -9.699219 -76.710938 -9.832031 -42.003906 C -9.953125 -26.449219 -9.464844 -17.734375 -7.742188 -6.597656 C -5.222656 10.125 -2.269531 18.316406 2.847656 22.726562 C 4.539062 24.152344 6.121094 25.171875 6.429688 25.234375 C 6.699219 25.160156 7.621094 25.34375 8.613281 25.796875 C 9.4375 26.15625 10.871094 26.636719 11.828125 26.953125 C 12.886719 27.101562 14.382812 27.277344 15.230469 27.191406 C 17.328125 26.910156 19.871094 25.058594 19.675781 23.804688 C 19.566406 23.398438 19.789062 22.613281 19.949219 22.136719 C 20.476562 21.410156 17.300781 15.601562 16.355469 15.859375 C 16.046875 15.796875 14.878906 16.839844 13.789062 18.152344 C 12.695312 19.464844 11.527344 20.507812 11.390625 20.546875 C 10.679688 20.59375 8.667969 16.933594 7.589844 14.035156 C 4.160156 4.089844 1.484375 -15.34375 1.882812 -28.800781 C 1.910156 -30.835938 1.914062 -35.625 1.941406 -39.257812 C 1.964844 -56.238281 4.304688 -87.628906 6.261719 -96.429688 C 6.976562 -99.667969 8.367188 -107.882812 9.058594 -113.871094 C 10.144531 -122.144531 10.820312 -125.523438 15.769531 -147.320312 C 16.203125 -149.46875 16.769531 -151.65625 17.234375 -153.667969 Z M 68.796875 -172.628906 C 71.757812 -174.011719 79.847656 -175.199219 83.726562 -174.804688 C 85.1875 -174.765625 84.414062 -174.410156 82.820312 -174.410156 C 81.359375 -174.449219 76.078125 -173.59375 74.050781 -173.042969 C 73.105469 -172.785156 72.125 -172.660156 71.953125 -172.761719 C 71.78125 -172.859375 70.796875 -172.734375 69.753906 -172.308594 C 67.730469 -171.757812 67.117188 -171.878906 68.796875 -172.628906 Z M 64.167969 -171.511719 C 65.519531 -171.878906 66.5 -172.003906 66.367188 -171.964844 C 65.863281 -171.683594 65.863281 -171.683594 66.476562 -171.558594 C 66.785156 -171.5 66.785156 -171.5 66.242188 -171.351562 C 65.972656 -171.277344 65.566406 -171.167969 65.53125 -171.304688 C 65.496094 -171.4375 64.78125 -171.390625 63.835938 -171.132812 C 62.757812 -170.839844 61.945312 -170.617188 61.773438 -170.714844 C 61.601562 -170.816406 62.683594 -171.109375 64.167969 -171.511719 Z M 47.863281 -166.933594 C 48.90625 -167.359375 60.621094 -170.691406 60.421875 -170.347656 C 60.289062 -170.3125 58.027344 -169.550781 55.363281 -168.683594 C 52.664062 -167.949219 50.269531 -167.152344 50 -167.078125 C 49.898438 -166.90625 49.054688 -166.820312 48.378906 -166.636719 C 46.992188 -166.40625 46.953125 -166.539062 47.863281 -166.933594 Z M 29.417969 -160.609375 C 29.75 -160.988281 30.15625 -161.097656 33.628906 -162.191406 C 35.078125 -162.730469 37.746094 -163.597656 39.464844 -164.210938 C 43.539062 -165.757812 46.242188 -166.492188 46.351562 -166.085938 C 46.386719 -165.949219 46.117188 -165.878906 45.714844 -165.765625 C 44.363281 -165.398438 39.878906 -163.746094 39.511719 -163.5 C 38.8125 -162.875 37.226562 -162.296875 35.261719 -162.054688 C 34.109375 -162.03125 32.894531 -161.699219 32.625 -161.625 C 32.023438 -161.171875 32.15625 -161.207031 33.140625 -161.332031 C 34.121094 -161.453125 34.121094 -161.453125 32.769531 -161.085938 C 31.960938 -160.863281 31.382812 -160.851562 31.480469 -161.023438 C 31.578125 -161.195312 31.175781 -161.085938 30.535156 -160.765625 C 29.859375 -160.582031 29.320312 -160.4375 29.417969 -160.609375 Z M -25.421875 -140.902344 C -27.375 -140.082031 -31.21875 -138.746094 -34.25 -137.628906 C -37.011719 -136.589844 -41.359375 -134.972656 -43.71875 -134.039062 C -50.324219 -131.660156 -52.582031 -130.902344 -52.351562 -131.109375 C -52.25 -131.28125 -50.261719 -131.96875 -47.90625 -132.902344 C -45.546875 -133.832031 -41.46875 -135.375 -38.84375 -136.382812 C -34.128906 -138.246094 -25.125 -141.417969 -22.460938 -142.289062 C -21.652344 -142.507812 -20.878906 -142.863281 -20.644531 -143.074219 C -20.546875 -143.246094 -20.277344 -143.316406 -20.203125 -143.046875 C -20.128906 -142.777344 -20.765625 -142.457031 -25.421875 -140.902344 Z M -18.644531 -143.183594 C -18.777344 -143.144531 -18.949219 -143.242188 -18.988281 -143.378906 C -19.023438 -143.511719 -18.925781 -143.683594 -18.789062 -143.722656 C -18.519531 -143.796875 -18.347656 -143.699219 -18.3125 -143.5625 C -18.273438 -143.425781 -18.371094 -143.253906 -18.644531 -143.183594 Z M -16.960938 -143.929688 C -17.367188 -143.820312 -17.539062 -143.917969 -17.4375 -144.089844 C -17.339844 -144.261719 -17.109375 -144.46875 -16.835938 -144.542969 C -16.703125 -144.582031 -16.53125 -144.480469 -16.492188 -144.347656 C -16.457031 -144.210938 -16.691406 -144.003906 -16.960938 -143.929688 Z M -11.570312 -145.976562 C -12.171875 -145.523438 -12.578125 -145.414062 -12.652344 -145.683594 C -12.6875 -145.816406 -12.320312 -146.0625 -11.914062 -146.171875 C -11.238281 -146.355469 -11.066406 -146.257812 -11.570312 -145.976562 Z M -4.65625 -148.292969 C -5.96875 -147.789062 -7.960938 -147.105469 -9.039062 -146.808594 C -10.085938 -146.378906 -10.894531 -146.160156 -10.796875 -146.332031 C -10.5625 -146.539062 -2.238281 -149.53125 -2.199219 -149.394531 C -2.164062 -149.261719 -3.207031 -148.832031 -4.65625 -148.292969 Z M 0.355469 0.773438 C 0.292969 1.082031 0.746094 3.277344 1.371094 5.574219 C 2.167969 7.96875 2.621094 10.167969 2.484375 10.203125 C 2.191406 10.71875 1.457031 8.015625 0.292969 2.675781 C -0.390625 -0.910156 -0.550781 -2.027344 -0.121094 -0.980469 C 0.332031 -0.378906 0.550781 0.429688 0.355469 0.773438 Z M -1.320312 -8.054688 C -1.34375 -7.613281 -1.515625 -7.710938 -1.664062 -8.25 C -1.714844 -8.964844 -1.652344 -9.269531 -1.441406 -9.035156 C -1.269531 -8.9375 -1.296875 -8.496094 -1.320312 -8.054688 Z M 3.953125 -112.917969 C 4.183594 -111.53125 3.738281 -106.765625 3.332031 -106.65625 C 3.160156 -106.753906 2.941406 -105.96875 2.988281 -105.257812 C 2.902344 -104.507812 2.644531 -103.859375 2.375 -103.785156 C 2.105469 -103.710938 2.164062 -102.421875 2.46875 -100.765625 C 2.640625 -99.070312 2.601562 -97.609375 2.273438 -97.230469 C 1.511719 -96.296875 1.140625 -92.859375 1.570312 -91.816406 C 1.851562 -91.3125 1.886719 -91.175781 1.542969 -91.375 C 1.199219 -91.570312 1.050781 -90.515625 1.085938 -88.785156 C 1.222656 -87.226562 1.050781 -85.726562 0.949219 -85.554688 C 0.753906 -85.210938 0.605469 -84.15625 0.800781 -82.902344 C 0.863281 -81.613281 0.726562 -79.980469 0.503906 -79.195312 C 0 -77.316406 -0.382812 -72.863281 -0.570312 -67.152344 C -0.660156 -64.808594 -0.84375 -62.292969 -1.101562 -61.640625 C -1.359375 -60.992188 -1.433594 -59.664062 -1.351562 -58.816406 C -0.875 -53.871094 -0.988281 -51.082031 -1.636719 -51.34375 C -1.945312 -51.402344 -2.277344 -51.023438 -2.398438 -50.410156 C -2.386719 -49.832031 -2.238281 -49.292969 -1.933594 -49.230469 C -1.761719 -49.132812 -1.601562 -48.015625 -1.714844 -46.824219 C -1.988281 -37.175781 -2.175781 -34.660156 -1.941406 -33.269531 C -1.820312 -32.289062 -1.859375 -30.828125 -2.179688 -29.871094 C -2.621094 -28.300781 -2.546875 -28.027344 -1.789062 -27.367188 C -1.027344 -26.703125 -0.988281 -26.566406 -1.652344 -25.804688 C -2.21875 -25.21875 -2.21875 -23.621094 -1.914062 -18.773438 C -1.257812 -11.554688 -1.53125 -8.289062 -2.238281 -13.027344 C -2.582031 -14.820312 -2.847656 -17.9375 -2.859375 -20.109375 C -3.007812 -22.246094 -3.1875 -26.113281 -3.34375 -28.828125 C -3.464844 -31.40625 -3.476562 -36.769531 -3.351562 -40.578125 C -3.261719 -44.515625 -3.160156 -49.476562 -3.035156 -51.6875 C -3.105469 -59.9375 -2.523438 -69.523438 -1.398438 -79.257812 C -0.816406 -84.058594 -0.410156 -85.765625 0.128906 -85.910156 C 0.839844 -85.960938 0.804688 -86.09375 0.117188 -86.488281 C -0.535156 -86.746094 -0.421875 -87.9375 0.207031 -93.621094 C 1.515625 -104.277344 3.671875 -115.015625 3.953125 -112.917969 Z M 6.027344 -137.273438 C 4.257812 -129.394531 0.339844 -107.003906 -0.574219 -100.226562 C -1.785156 -89.742188 -3.539062 -72.730469 -3.453125 -71.882812 C -3.441406 -71.304688 -3.851562 -64.8125 -4.269531 -60.488281 C -4.320312 -59.605469 -4.359375 -58.144531 -4.371094 -57.125 C -4.421875 -56.242188 -4.433594 -53.628906 -4.421875 -51.453125 C -4.585938 -49.378906 -4.710938 -45.574219 -4.664062 -43.265625 C -4.75 -40.921875 -4.8125 -37.421875 -4.972656 -35.347656 C -5 -33.308594 -5.039062 -30.253906 -4.867188 -28.558594 C -4.832031 -26.828125 -4.613281 -22.824219 -4.578125 -19.5 C -4.433594 -15.765625 -3.789062 -9.125 -2.75 -1.574219 C -1.039062 10.582031 -0.867188 13.871094 -2.3125 8.027344 C -2.789062 6.273438 -3.625 3.742188 -4.125 2.429688 C -5.449219 -0.839844 -8.164062 -18.8125 -7.144531 -18.800781 C -6.53125 -18.675781 -6.46875 -18.984375 -7.378906 -20.1875 C -8.003906 -20.886719 -8.101562 -22.3125 -8.308594 -25.738281 C -8.292969 -28.351562 -8.207031 -30.695312 -7.972656 -30.90625 C -7.542969 -31.457031 -7.308594 -33.261719 -7.847656 -33.113281 C -8.558594 -33.066406 -8.546875 -34.085938 -8.417969 -44.273438 C -8.351562 -49.371094 -8.128906 -53.347656 -7.859375 -53.421875 C -7.554688 -53.359375 -7.007812 -58.292969 -6.722656 -64.175781 C -5.964844 -76.855469 -3.964844 -95.097656 -3.082031 -98.238281 C -2.699219 -99.503906 -2.414062 -100.597656 -2.488281 -100.867188 C -2.5625 -101.136719 -2.292969 -102.804688 -1.789062 -104.683594 C -0.335938 -111.605469 0.367188 -115.425781 0.148438 -116.234375 C 0.0390625 -116.640625 0.0976562 -116.945312 0.234375 -116.984375 C 0.503906 -117.058594 0.664062 -117.535156 0.480469 -118.210938 C 0.40625 -120.078125 3.820312 -135.800781 4.800781 -137.519531 C 5.292969 -138.378906 5.945312 -139.714844 6.167969 -140.503906 C 7.039062 -142.625 6.988281 -141.742188 6.027344 -137.273438 Z M 6.027344 -137.273438 "/></g></g></g></svg>